<svg width="173" height="67" viewBox="0 0 173 67" fill="none" xmlns="http://www.w3.org/2000/svg">
<g filter="url(#filter0_d_536_1259)">
<rect x="22" y="12" width="134" height="23" rx="11.5" fill="url(#paint0_linear_536_1259)"/>
</g>
<path d="M52.98 19.44H56.98V20.12H52.98V19.44ZM54.34 21.46H55.16V23.72H54.34V21.46ZM56.65 19.44H57.47V19.92C57.47 20.51 57.47 21.41 57.23 22.6L56.42 22.51C56.65 21.32 56.65 20.5 56.65 19.92V19.44ZM58.7 18.74H59.53V25.55H58.7V18.74ZM59.15 21.68H60.82V22.37H59.15V21.68ZM53.82 26.9H59.82V27.58H53.82V26.9ZM53.82 24.92H54.64V27.11H53.82V24.92ZM52.52 24.11L52.43 23.43C54.04 23.43 56.26 23.39 58.09 23.14L58.15 23.74C56.27 24.07 54.11 24.11 52.52 24.11ZM68.2692 18.75H69.1092V23.88H68.2692V18.75ZM63.2692 24.4H69.1092V27.66H63.2692V24.4ZM68.2892 25.06H64.0792V26.99H68.2892V25.06ZM64.0492 19.09H64.7392V19.97C64.7392 21.65 63.6992 23.09 62.1692 23.66L61.7592 23C63.1192 22.51 64.0492 21.29 64.0492 19.97V19.09ZM64.1992 19.09H64.8792V19.97C64.8792 21.25 65.8192 22.38 67.1592 22.83L66.7492 23.48C65.2392 22.96 64.1992 21.61 64.1992 19.97V19.09ZM75.7887 19.67H76.4787V20.39C76.4787 22.05 75.4587 23.44 73.9387 23.98L73.5087 23.33C74.8687 22.85 75.7887 21.67 75.7887 20.39V19.67ZM75.9487 19.67H76.6387V20.39C76.6387 21.61 77.5787 22.71 78.9187 23.16L78.4887 23.81C76.9887 23.3 75.9487 21.97 75.9487 20.39V19.67ZM79.9587 18.74H80.7987V24.21H79.9587V18.74ZM74.7587 24.69H80.7987V27.78H79.9587V25.37H74.7587V24.69ZM73.7287 19.37H78.6787V20.04H73.7287V19.37ZM82.5779 23.99H90.7779V24.67H82.5779V23.99ZM86.2379 24.4H87.0579V27.78H86.2379V24.4ZM83.6179 19.24H89.7179V22.77H83.6179V19.24ZM88.9079 19.91H84.4379V22.1H88.9079V19.91ZM97.9473 24.49H98.7673V27.79H97.9473V24.49ZM94.2773 24.2H102.447V24.89H94.2773V24.2ZM97.9373 20.29H98.6673V20.52C98.6673 22.08 96.9773 23.23 95.0773 23.52L94.7873 22.86C96.4173 22.64 97.9373 21.65 97.9373 20.52V20.29ZM98.0473 20.29H98.7673V20.52C98.7673 21.64 100.297 22.64 101.917 22.86L101.617 23.52C99.7273 23.24 98.0473 22.06 98.0473 20.52V20.29ZM95.0673 19.85H101.657V20.53H95.0673V19.85ZM97.9473 18.74H98.7673V20.09H97.9473V18.74ZM109.587 18.73H110.427V27.78H109.587V18.73ZM110.197 22.4H111.867V23.09H110.197V22.4ZM107.277 19.71H108.087C108.087 22.28 106.907 24.6 103.987 26.07L103.527 25.43C106.027 24.16 107.277 22.23 107.277 19.84V19.71ZM103.947 19.71H107.707V20.39H103.947V19.71ZM118.796 18.74H119.626V27.78H118.796V18.74ZM119.426 22.45H121.106V23.15H119.426V22.45ZM112.626 20.18H117.956V20.86H112.626V20.18ZM115.326 21.61C116.606 21.61 117.526 22.47 117.526 23.69C117.526 24.91 116.606 25.77 115.326 25.77C114.056 25.77 113.126 24.91 113.126 23.69C113.126 22.47 114.056 21.61 115.326 21.61ZM115.326 22.3C114.506 22.3 113.916 22.87 113.916 23.69C113.916 24.5 114.506 25.08 115.326 25.08C116.146 25.08 116.736 24.5 116.736 23.69C116.736 22.87 116.146 22.3 115.326 22.3ZM114.896 18.85H115.726V20.49H114.896V18.85ZM128.455 18.74H129.285V27.78H128.455V18.74ZM125.805 19.71H126.625C126.625 22.33 125.445 24.62 122.425 26.1L121.985 25.43C124.595 24.17 125.805 22.25 125.805 19.85V19.71ZM122.395 19.71H126.165V20.39H122.395V19.71Z" fill="black"/>
<defs>
<filter id="filter0_d_536_1259" x="0" y="0" width="178" height="67" filterUnits="userSpaceOnUse" color-interpolation-filters="sRGB">
<feFlood flood-opacity="0" result="BackgroundImageFix"/>
<feColorMatrix in="SourceAlpha" type="matrix" values="0 0 0 0 0 0 0 0 0 0 0 0 0 0 0 0 0 0 127 0" result="hardAlpha"/>
<feOffset dy="10"/>
<feGaussianBlur stdDeviation="11"/>
<feColorMatrix type="matrix" values="0 0 0 0 0.631373 0 0 0 0 0.768627 0 0 0 0 0.992157 0 0 0 0.4 0"/>
<feBlend mode="normal" in2="BackgroundImageFix" result="effect1_dropShadow_536_1259"/>
<feBlend mode="normal" in="SourceGraphic" in2="effect1_dropShadow_536_1259" result="shape"/>
</filter>
<linearGradient id="paint0_linear_536_1259" x1="89" y1="12" x2="89" y2="35" gradientUnits="userSpaceOnUse">
<stop stop-color="#C2E9FB"/>
<stop offset="1" stop-color="#A1C4FD" stop-opacity="0.94"/>
</linearGradient>
</defs>
</svg>
