<svg width="44" height="44" viewBox="0 0 44 44" fill="none" xmlns="http://www.w3.org/2000/svg">
<circle cx="22" cy="22" r="22" fill="url(#paint0_linear_114_1203)"/>
<path d="M29.4645 22.1208C29.4602 22.5187 29.1981 22.8439 28.8619 22.8912L28.7686 22.897L15.0196 22.7028C14.64 22.6974 14.336 22.3412 14.3407 21.9072C14.345 21.5094 14.6072 21.1842 14.9433 21.1369L15.0366 21.131L28.7856 21.3253C29.1652 21.3306 29.4692 21.6868 29.4645 22.1208Z" fill="white"/>
<path d="M20.9962 27.7579C21.2619 28.0679 21.2575 28.5655 20.9863 28.8693C20.7397 29.1455 20.3576 29.1664 20.0905 28.935L20.014 28.858L14.5369 22.4674C14.2946 22.1847 14.277 21.7463 14.481 21.441L14.5489 21.3537L20.1625 15.1187C20.4348 14.8162 20.8701 14.8234 21.1347 15.1348C21.3752 15.4178 21.3919 15.8547 21.1883 16.1591L21.1207 16.2461L16.0025 21.9314L20.9962 27.7579Z" fill="white"/>
<defs>
<linearGradient id="paint0_linear_114_1203" x1="22" y1="0" x2="22" y2="44" gradientUnits="userSpaceOnUse">
<stop stop-color="#C2E9FB"/>
<stop offset="1" stop-color="#A1C4FD" stop-opacity="0.94"/>
</linearGradient>
</defs>
</svg>
