<svg width="198" height="164" viewBox="0 0 198 164" fill="none" xmlns="http://www.w3.org/2000/svg">
<path d="M249 82C249 127.287 212.287 164 167 164C121.713 164 85 127.287 85 82C85 36.7126 121.713 0 167 0C212.287 0 249 36.7126 249 82Z" fill="url(#paint0_linear_525_1227)"/>
<path d="M122 70C122 103.689 94.6894 131 61 131C27.3106 131 0 103.689 0 70C0 36.3106 27.3106 9 61 9C94.6894 9 122 36.3106 122 70Z" fill="url(#paint1_linear_525_1227)" fill-opacity="0.9"/>
<defs>
<linearGradient id="paint0_linear_525_1227" x1="167" y1="0" x2="167" y2="164" gradientUnits="userSpaceOnUse">
<stop offset="0.494792" stop-color="#C2E9FB" stop-opacity="0.85"/>
<stop offset="1" stop-color="#A1C4FD" stop-opacity="0.95"/>
</linearGradient>
<linearGradient id="paint1_linear_525_1227" x1="61" y1="9" x2="61" y2="131" gradientUnits="userSpaceOnUse">
<stop offset="0.494792" stop-color="#C2E9FB" stop-opacity="0.85"/>
<stop offset="1" stop-color="#A1C4FD" stop-opacity="0.95"/>
</linearGradient>
</defs>
</svg>
