<svg width="230" height="214" viewBox="0 0 230 214" fill="none" xmlns="http://www.w3.org/2000/svg">
<path d="M230 82C230 127.287 193.287 164 148 164C102.713 164 66 127.287 66 82C66 36.7126 102.713 0 148 0C193.287 0 230 36.7126 230 82Z" fill="url(#paint0_linear_525_1226)"/>
<path d="M145 119.5C145 171.691 102.691 214 50.5 214C-1.69091 214 -44 171.691 -44 119.5C-44 67.3091 -1.69091 25 50.5 25C102.691 25 145 67.3091 145 119.5Z" fill="url(#paint1_linear_525_1226)" fill-opacity="0.9"/>
<defs>
<linearGradient id="paint0_linear_525_1226" x1="148" y1="0" x2="148" y2="164" gradientUnits="userSpaceOnUse">
<stop offset="0.494792" stop-color="#C2E9FB" stop-opacity="0.85"/>
<stop offset="1" stop-color="#A1C4FD" stop-opacity="0.95"/>
</linearGradient>
<linearGradient id="paint1_linear_525_1226" x1="50.5" y1="25" x2="50.5" y2="214" gradientUnits="userSpaceOnUse">
<stop offset="0.494792" stop-color="#C2E9FB" stop-opacity="0.85"/>
<stop offset="1" stop-color="#A1C4FD" stop-opacity="0.95"/>
</linearGradient>
</defs>
</svg>
