<svg width="60" height="60" viewBox="0 0 60 60" fill="none" xmlns="http://www.w3.org/2000/svg">
<rect x="0.5" y="0.5" width="59" height="59" rx="29.5" fill="url(#paint0_linear_23_1180)"/>
<g clip-path="url(#clip0_23_1180)">
<path d="M40.6182 12.8193C40.4131 12.6142 40.1349 12.499 39.8449 12.499C39.5549 12.499 39.2767 12.6142 39.0716 12.8193L35.4688 16.4221L43.5779 24.5311L47.1807 20.9305C47.2826 20.8289 47.3634 20.7082 47.4185 20.5753C47.4736 20.4425 47.502 20.3 47.502 20.1561C47.502 20.0123 47.4736 19.8698 47.4185 19.7369C47.3634 19.6041 47.2826 19.4834 47.1807 19.3818L40.6182 12.8193ZM42.0313 26.0777L33.9223 17.9686L19.7035 32.1874H20.1563C20.4464 32.1874 20.7246 32.3026 20.9297 32.5077C21.1348 32.7129 21.2501 32.9911 21.2501 33.2811V34.3749H22.3438C22.6339 34.3749 22.9121 34.4901 23.1172 34.6952C23.3223 34.9003 23.4376 35.1786 23.4376 35.4686V36.5624H24.5313C24.8214 36.5624 25.0996 36.6776 25.3047 36.8827C25.5098 37.0878 25.6251 37.366 25.6251 37.6561V38.7499H26.7188C27.0089 38.7499 27.2871 38.8651 27.4922 39.0702C27.6973 39.2753 27.8126 39.5535 27.8126 39.8436V40.2964L42.0313 26.0777ZM25.6951 42.4139C25.649 42.2915 25.6253 42.1619 25.6251 42.0311V40.9374H24.5313C24.2412 40.9374 23.963 40.8221 23.7579 40.617C23.5528 40.4119 23.4376 40.1337 23.4376 39.8436V38.7499H22.3438C22.0537 38.7499 21.7755 38.6346 21.5704 38.4295C21.3653 38.2244 21.2501 37.9462 21.2501 37.6561V36.5624H20.1563C19.8662 36.5624 19.588 36.4471 19.3829 36.242C19.1778 36.0369 19.0626 35.7587 19.0626 35.4686V34.3749H17.9688C17.838 34.3747 17.7084 34.351 17.586 34.3049L17.1944 34.6943C17.0902 34.7992 17.0083 34.9242 16.9538 35.0618L12.5788 45.9993C12.4993 46.198 12.4798 46.4158 12.5228 46.6255C12.5658 46.8352 12.6695 47.0277 12.8208 47.1791C12.9722 47.3305 13.1647 47.4341 13.3745 47.4771C13.5842 47.5202 13.8019 47.5007 14.0007 47.4211L24.9382 43.0461C25.0757 42.9916 25.2007 42.9097 25.3057 42.8055L25.6951 42.4161V42.4139Z" fill="white"/>
</g>
<rect x="0.5" y="0.5" width="59" height="59" rx="29.5" stroke="url(#paint1_linear_23_1180)"/>
<defs>
<linearGradient id="paint0_linear_23_1180" x1="30" y1="0" x2="30" y2="60" gradientUnits="userSpaceOnUse">
<stop offset="0.494792" stop-color="#C2E9FB" stop-opacity="0.85"/>
<stop offset="1" stop-color="#A1C4FD" stop-opacity="0.95"/>
</linearGradient>
<linearGradient id="paint1_linear_23_1180" x1="30" y1="0" x2="30" y2="60" gradientUnits="userSpaceOnUse">
<stop offset="0.494792" stop-color="#C2E9FB" stop-opacity="0.85"/>
<stop offset="1" stop-color="#A1C4FD" stop-opacity="0.95"/>
</linearGradient>
<clipPath id="clip0_23_1180">
<rect width="35" height="35" fill="white" transform="translate(12.5 12.5)"/>
</clipPath>
</defs>
</svg>
