<svg width="500" height="420" viewBox="0 0 500 420" fill="none" xmlns="http://www.w3.org/2000/svg">
<path d="M480.867 207.094C507.715 270.695 477.921 344.019 414.32 370.867C350.718 397.715 277.395 367.921 250.547 304.32C223.699 240.719 253.493 167.395 317.094 140.547C380.695 113.699 454.019 143.493 480.867 207.094Z" fill="url(#paint0_linear_496_1255)"/>
<path d="M324.272 80.5649C379.026 142.733 373.017 237.517 310.849 292.272C248.681 347.026 153.897 341.017 99.142 278.849C44.3874 216.681 50.397 121.897 112.565 67.142C174.733 12.3874 269.517 18.397 324.272 80.5649Z" fill="url(#paint1_linear_496_1255)"/>
<path d="M79.5966 275.65C120.337 336.077 163.337 336.077 213.837 349.077" stroke="url(#paint2_linear_496_1255)" stroke-width="2"/>
<path d="M68.2039 268.164L70.6907 270.006L73.4779 272.345" stroke="url(#paint3_linear_496_1255)" stroke-width="3" stroke-linecap="round"/>
<path d="M64.0878 272.934L58.1457 259.764L54.3214 250.086L51.6768 240.16" stroke="url(#paint4_linear_496_1255)" stroke-width="3" stroke-linecap="round"/>
<path d="M87.3643 255.792L75.2884 259.215" stroke="url(#paint5_linear_496_1255)" stroke-width="3" stroke-linecap="round"/>
<path d="M75.4088 259.809L74.6994 265.61L73.6829 272.344" stroke="url(#paint6_linear_496_1255)" stroke-width="3" stroke-linecap="round"/>
<path d="M74.7322 259.734L64.0641 273.127" stroke="url(#paint7_linear_496_1255)" stroke-width="3" stroke-linecap="round"/>
<path d="M75.3356 258.829L52.312 240.336" stroke="url(#paint8_linear_496_1255)" stroke-width="3" stroke-linecap="round"/>
<path d="M87.5648 255.324L74.3164 248.572L51.8622 239.987" stroke="url(#paint9_linear_496_1255)" stroke-width="3" stroke-linecap="round"/>
<defs>
<linearGradient id="paint0_linear_496_1255" x1="317.094" y1="140.547" x2="414.32" y2="370.867" gradientUnits="userSpaceOnUse">
<stop offset="0.494792" stop-color="#C2E9FB" stop-opacity="0.85"/>
<stop offset="1" stop-color="#A1C4FD" stop-opacity="0.95"/>
</linearGradient>
<linearGradient id="paint1_linear_496_1255" x1="112.565" y1="67.142" x2="310.849" y2="292.272" gradientUnits="userSpaceOnUse">
<stop offset="0.494792" stop-color="#C2E9FB" stop-opacity="0.85"/>
<stop offset="1" stop-color="#A1C4FD" stop-opacity="0.95"/>
</linearGradient>
<linearGradient id="paint2_linear_496_1255" x1="148.522" y1="309.392" x2="137.022" y2="328.319" gradientUnits="userSpaceOnUse">
<stop stop-color="#C2E9FB"/>
<stop offset="1" stop-color="#A1C4FD" stop-opacity="0.94"/>
</linearGradient>
<linearGradient id="paint3_linear_496_1255" x1="70.8409" y1="270.254" x2="70.9038" y2="270.175" gradientUnits="userSpaceOnUse">
<stop stop-color="#C2E9FB"/>
<stop offset="1" stop-color="#A1C4FD" stop-opacity="0.94"/>
</linearGradient>
<linearGradient id="paint4_linear_496_1255" x1="57.9824" y1="256.489" x2="56.9483" y2="256.888" gradientUnits="userSpaceOnUse">
<stop stop-color="#C2E9FB"/>
<stop offset="1" stop-color="#A1C4FD" stop-opacity="0.94"/>
</linearGradient>
<linearGradient id="paint5_linear_496_1255" x1="81.3263" y1="257.504" x2="81.5973" y2="258.46" gradientUnits="userSpaceOnUse">
<stop stop-color="#C2E9FB"/>
<stop offset="1" stop-color="#A1C4FD" stop-opacity="0.94"/>
</linearGradient>
<linearGradient id="paint6_linear_496_1255" x1="74.5459" y1="266.076" x2="74.6335" y2="266.088" gradientUnits="userSpaceOnUse">
<stop stop-color="#C2E9FB"/>
<stop offset="1" stop-color="#A1C4FD" stop-opacity="0.94"/>
</linearGradient>
<linearGradient id="paint7_linear_496_1255" x1="69.3981" y1="266.431" x2="70.1693" y2="267.045" gradientUnits="userSpaceOnUse">
<stop stop-color="#C2E9FB"/>
<stop offset="1" stop-color="#A1C4FD" stop-opacity="0.94"/>
</linearGradient>
<linearGradient id="paint8_linear_496_1255" x1="63.8238" y1="249.582" x2="63.2041" y2="250.354" gradientUnits="userSpaceOnUse">
<stop stop-color="#C2E9FB"/>
<stop offset="1" stop-color="#A1C4FD" stop-opacity="0.94"/>
</linearGradient>
<linearGradient id="paint9_linear_496_1255" x1="70.059" y1="246.664" x2="69.5066" y2="247.897" gradientUnits="userSpaceOnUse">
<stop stop-color="#C2E9FB"/>
<stop offset="1" stop-color="#A1C4FD" stop-opacity="0.94"/>
</linearGradient>
</defs>
</svg>
