<svg width="365" height="240" viewBox="0 0 365 240" fill="none" xmlns="http://www.w3.org/2000/svg">
<path d="M481.16 27.3874C508.008 90.9885 478.214 164.312 414.613 191.16C351.011 218.008 277.688 188.214 250.84 124.613C223.992 61.0116 253.786 -12.3119 317.387 -39.1599C380.988 -66.0079 454.312 -36.2137 481.16 27.3874Z" fill="url(#paint0_linear_790_1199)"/>
<path d="M324.565 -99.1421C379.319 -36.9743 373.31 57.8102 311.142 112.565C248.974 167.319 154.19 161.31 99.435 99.1419C44.6804 36.974 50.69 -57.8104 112.858 -112.565C175.026 -167.32 269.81 -161.31 324.565 -99.1421Z" fill="url(#paint1_linear_790_1199)"/>
<path d="M79.8895 95.9426C120.63 156.37 163.63 156.37 214.13 169.37" stroke="url(#paint2_linear_790_1199)" stroke-width="2"/>
<path d="M68.4968 88.457L70.9837 90.2991L73.7709 92.6377" stroke="url(#paint3_linear_790_1199)" stroke-width="3" stroke-linecap="round"/>
<path d="M64.3808 93.2268L58.4387 80.0565L54.6144 70.3786L51.9697 60.4531" stroke="url(#paint4_linear_790_1199)" stroke-width="3" stroke-linecap="round"/>
<path d="M87.6572 76.0854L75.5814 79.5078" stroke="url(#paint5_linear_790_1199)" stroke-width="3" stroke-linecap="round"/>
<path d="M75.7017 80.1016L74.9923 85.9026L73.9757 92.637" stroke="url(#paint6_linear_790_1199)" stroke-width="3" stroke-linecap="round"/>
<path d="M75.0251 80.0273L64.3571 93.4199" stroke="url(#paint7_linear_790_1199)" stroke-width="3" stroke-linecap="round"/>
<path d="M75.6287 79.1216L52.6051 60.6291" stroke="url(#paint8_linear_790_1199)" stroke-width="3" stroke-linecap="round"/>
<path d="M87.8578 75.6171L74.6094 68.8655L52.1551 60.2802" stroke="url(#paint9_linear_790_1199)" stroke-width="3" stroke-linecap="round"/>
<defs>
<linearGradient id="paint0_linear_790_1199" x1="317.387" y1="-39.1599" x2="414.613" y2="191.16" gradientUnits="userSpaceOnUse">
<stop offset="0.494792" stop-color="#C2E9FB" stop-opacity="0.85"/>
<stop offset="1" stop-color="#A1C4FD" stop-opacity="0.95"/>
</linearGradient>
<linearGradient id="paint1_linear_790_1199" x1="112.858" y1="-112.565" x2="311.142" y2="112.565" gradientUnits="userSpaceOnUse">
<stop offset="0.494792" stop-color="#C2E9FB" stop-opacity="0.85"/>
<stop offset="1" stop-color="#A1C4FD" stop-opacity="0.95"/>
</linearGradient>
<linearGradient id="paint2_linear_790_1199" x1="148.815" y1="129.685" x2="137.315" y2="148.612" gradientUnits="userSpaceOnUse">
<stop stop-color="#C2E9FB"/>
<stop offset="1" stop-color="#A1C4FD" stop-opacity="0.94"/>
</linearGradient>
<linearGradient id="paint3_linear_790_1199" x1="71.1339" y1="90.5474" x2="71.1968" y2="90.468" gradientUnits="userSpaceOnUse">
<stop stop-color="#C2E9FB"/>
<stop offset="1" stop-color="#A1C4FD" stop-opacity="0.94"/>
</linearGradient>
<linearGradient id="paint4_linear_790_1199" x1="58.2754" y1="76.7815" x2="57.2413" y2="77.1808" gradientUnits="userSpaceOnUse">
<stop stop-color="#C2E9FB"/>
<stop offset="1" stop-color="#A1C4FD" stop-opacity="0.94"/>
</linearGradient>
<linearGradient id="paint5_linear_790_1199" x1="81.6193" y1="77.7966" x2="81.8903" y2="78.7528" gradientUnits="userSpaceOnUse">
<stop stop-color="#C2E9FB"/>
<stop offset="1" stop-color="#A1C4FD" stop-opacity="0.94"/>
</linearGradient>
<linearGradient id="paint6_linear_790_1199" x1="74.8387" y1="86.3693" x2="74.9264" y2="86.3813" gradientUnits="userSpaceOnUse">
<stop stop-color="#C2E9FB"/>
<stop offset="1" stop-color="#A1C4FD" stop-opacity="0.94"/>
</linearGradient>
<linearGradient id="paint7_linear_790_1199" x1="69.6911" y1="86.7236" x2="70.4623" y2="87.3379" gradientUnits="userSpaceOnUse">
<stop stop-color="#C2E9FB"/>
<stop offset="1" stop-color="#A1C4FD" stop-opacity="0.94"/>
</linearGradient>
<linearGradient id="paint8_linear_790_1199" x1="64.1169" y1="69.8754" x2="63.4972" y2="70.6469" gradientUnits="userSpaceOnUse">
<stop stop-color="#C2E9FB"/>
<stop offset="1" stop-color="#A1C4FD" stop-opacity="0.94"/>
</linearGradient>
<linearGradient id="paint9_linear_790_1199" x1="70.352" y1="66.957" x2="69.7995" y2="68.1895" gradientUnits="userSpaceOnUse">
<stop stop-color="#C2E9FB"/>
<stop offset="1" stop-color="#A1C4FD" stop-opacity="0.94"/>
</linearGradient>
</defs>
</svg>
