<svg width="447" height="405" viewBox="0 0 447 405" fill="none" xmlns="http://www.w3.org/2000/svg">
<path d="M319.601 403.75C250.568 403.113 195.123 346.634 195.761 277.601C196.399 208.568 252.878 153.123 321.91 153.761C390.943 154.399 446.388 210.878 445.75 279.91C445.113 348.943 388.634 404.388 319.601 403.75Z" fill="url(#paint0_linear_496_1274)"/>
<path d="M229.488 58.7319C305.716 91.1686 341.216 179.259 308.779 255.488C276.343 331.716 188.252 367.216 112.024 334.779C35.7953 302.343 0.29516 214.252 32.7319 138.024C65.1686 61.7953 153.259 26.2952 229.488 58.7319Z" fill="url(#paint1_linear_496_1274)"/>
<defs>
<linearGradient id="paint0_linear_496_1274" x1="445.75" y1="279.91" x2="195.761" y2="277.601" gradientUnits="userSpaceOnUse">
<stop offset="0.494792" stop-color="#C2E9FB" stop-opacity="0.85"/>
<stop offset="1" stop-color="#A1C4FD" stop-opacity="0.95"/>
</linearGradient>
<linearGradient id="paint1_linear_496_1274" x1="32.7319" y1="138.024" x2="308.779" y2="255.488" gradientUnits="userSpaceOnUse">
<stop offset="0.494792" stop-color="#C2E9FB" stop-opacity="0.85"/>
<stop offset="1" stop-color="#A1C4FD" stop-opacity="0.95"/>
</linearGradient>
</defs>
</svg>
