<svg width="214" height="269" viewBox="0 0 214 269" fill="none" xmlns="http://www.w3.org/2000/svg">
<path d="M85.8454 403.995C16.8127 403.357 -38.6323 346.878 -37.9946 277.845C-37.3569 208.813 19.1221 153.368 88.1547 154.005C157.187 154.643 212.632 211.122 211.995 280.155C211.357 349.187 154.878 404.633 85.8454 403.995Z" fill="url(#paint0_linear_790_1204)"/>
<path d="M-4.26832 58.9763C71.9601 91.413 107.46 179.504 75.0236 255.732C42.5869 331.96 -45.5037 367.461 -121.732 335.024C-197.961 302.587 -233.461 214.497 -201.024 138.268C-168.587 62.0398 -80.4967 26.5396 -4.26832 58.9763Z" fill="url(#paint1_linear_790_1204)"/>
<defs>
<linearGradient id="paint0_linear_790_1204" x1="211.995" y1="280.155" x2="-37.9946" y2="277.845" gradientUnits="userSpaceOnUse">
<stop offset="0.494792" stop-color="#C2E9FB" stop-opacity="0.85"/>
<stop offset="1" stop-color="#A1C4FD" stop-opacity="0.95"/>
</linearGradient>
<linearGradient id="paint1_linear_790_1204" x1="-201.024" y1="138.268" x2="75.0236" y2="255.732" gradientUnits="userSpaceOnUse">
<stop offset="0.494792" stop-color="#C2E9FB" stop-opacity="0.85"/>
<stop offset="1" stop-color="#A1C4FD" stop-opacity="0.95"/>
</linearGradient>
</defs>
</svg>
