<svg width="33" height="21" viewBox="0 0 33 21" fill="none" xmlns="http://www.w3.org/2000/svg">
<path d="M14.05 21L11.8 17.975C11.1333 18.1083 10.4833 18.175 9.85 18.175C8.2 18.175 6.68333 17.7917 5.3 17.025C3.93333 16.2583 2.84167 15.1917 2.025 13.825C1.225 12.4417 0.825 10.8917 0.825 9.175C0.825 7.45833 1.225 5.91667 2.025 4.55C2.84167 3.18333 3.93333 2.11667 5.3 1.35C6.68333 0.583333 8.2 0.2 9.85 0.2C11.5 0.2 13.0083 0.583333 14.375 1.35C15.7583 2.11667 16.8417 3.18333 17.625 4.55C18.425 5.91667 18.825 7.45833 18.825 9.175C18.825 10.675 18.5167 12.05 17.9 13.3C17.3 14.5333 16.4583 15.5583 15.375 16.375L19.225 21H14.05ZM5.2 9.175C5.2 10.725 5.61667 11.9667 6.45 12.9C7.3 13.8167 8.43333 14.275 9.85 14.275C11.25 14.275 12.3667 13.8083 13.2 12.875C14.05 11.9417 14.475 10.7083 14.475 9.175C14.475 7.625 14.05 6.39167 13.2 5.475C12.3667 4.54167 11.25 4.075 9.85 4.075C8.43333 4.075 7.3 4.53333 6.45 5.45C5.61667 6.36667 5.2 7.60833 5.2 9.175ZM32.2521 0.449999V12.4C32.2521 14.25 31.7271 15.675 30.6771 16.675C29.6438 17.675 28.2438 18.175 26.4771 18.175C24.6271 18.175 23.1438 17.65 22.0271 16.6C20.9105 15.55 20.3521 14.0583 20.3521 12.125H24.6021C24.6021 12.8583 24.7521 13.4167 25.0521 13.8C25.3521 14.1667 25.7855 14.35 26.3521 14.35C26.8688 14.35 27.2688 14.1833 27.5521 13.85C27.8355 13.5167 27.9771 13.0333 27.9771 12.4V0.449999H32.2521Z" fill="url(#paint0_linear_44_4699)"/>
<defs>
<linearGradient id="paint0_linear_44_4699" x1="17.5" y1="-15" x2="17.5" y2="20" gradientUnits="userSpaceOnUse">
<stop stop-color="#C2E9FB"/>
<stop offset="1" stop-color="#A1C4FD" stop-opacity="0.94"/>
</linearGradient>
</defs>
</svg>
