<svg width="239" height="105" viewBox="0 0 239 105" fill="none" xmlns="http://www.w3.org/2000/svg">
<g filter="url(#filter0_d_314_1295)">
<rect x="4" width="231" height="97" rx="20" fill="#D0EEFC"/>
</g>
<path d="M72.59 41.445H74.495V55.335H72.59V41.445ZM70.775 46.8H73.085V48.39H70.775V46.8ZM69.485 41.685H71.345V54.675H69.485V41.685ZM63.14 42.975H65.135V51H63.14V42.975ZM63.14 50.25H64.1C65.435 50.25 66.995 50.175 68.72 49.845L68.915 51.555C67.1 51.885 65.51 51.96 64.1 51.96H63.14V50.25ZM83.5092 42.87H85.1592V43.74C85.1592 46.365 83.8842 48.735 81.2142 49.59L80.1942 48.045C82.5042 47.295 83.5092 45.48 83.5092 43.74V42.87ZM83.9142 42.87H85.5492V43.74C85.5492 45.39 86.5392 47.085 88.8042 47.805L87.7842 49.35C85.1742 48.525 83.9142 46.245 83.9142 43.74V42.87ZM89.6742 41.445H91.6842V49.815H89.6742V41.445ZM82.2042 50.43H91.6842V55.335H89.6742V52.02H82.2042V50.43ZM80.7192 42.255H88.2792V43.83H80.7192V42.255ZM93.933 49.215H106.518V50.805H93.933V49.215ZM99.183 50.235H101.163V55.335H99.183V50.235ZM95.388 42.12H105.018V47.73H95.388V42.12ZM103.053 43.695H97.353V46.155H103.053V43.695ZM120.407 41.445H122.402V49.485H120.407V41.445ZM121.847 44.685H124.247V46.32H121.847V44.685ZM116.432 42.345H118.577C118.577 46.08 116.267 48.675 112.172 49.815L111.362 48.225C114.707 47.31 116.432 45.495 116.432 43.35V42.345ZM112.022 42.345H117.647V43.95H112.022V42.345ZM117.902 49.665C120.707 49.665 122.552 50.76 122.552 52.5C122.552 54.255 120.707 55.35 117.902 55.35C115.097 55.35 113.222 54.255 113.222 52.5C113.222 50.76 115.097 49.665 117.902 49.665ZM117.902 51.21C116.207 51.21 115.202 51.66 115.202 52.5C115.202 53.355 116.207 53.805 117.902 53.805C119.597 53.805 120.602 53.355 120.602 52.5C120.602 51.66 119.597 51.21 117.902 51.21ZM129.736 42.36C131.926 42.36 133.561 43.785 133.561 45.78C133.561 47.79 131.926 49.215 129.736 49.215C127.561 49.215 125.896 47.79 125.896 45.78C125.896 43.785 127.561 42.36 129.736 42.36ZM129.736 44.07C128.671 44.07 127.861 44.7 127.861 45.78C127.861 46.875 128.671 47.505 129.736 47.505C130.801 47.505 131.611 46.875 131.611 45.78C131.611 44.7 130.801 44.07 129.736 44.07ZM134.866 41.43H136.861V55.365H134.866V41.43ZM125.566 52.545L125.326 50.94C127.771 50.94 131.176 50.91 134.101 50.475L134.251 51.915C131.236 52.515 127.966 52.545 125.566 52.545ZM148.08 50.34H150.06V55.35H148.08V50.34ZM142.815 49.755H155.37V51.375H142.815V49.755ZM148.065 43.935H149.82V44.265C149.82 46.59 147.81 48.615 144.135 49.05L143.445 47.49C146.58 47.13 148.065 45.555 148.065 44.265V43.935ZM148.32 43.935H150.075V44.265C150.075 45.525 151.575 47.13 154.695 47.49L153.99 49.05C150.33 48.63 148.32 46.53 148.32 44.265V43.935ZM143.94 43.035H154.23V44.61H143.94V43.035ZM148.08 41.475H150.06V43.575H148.08V41.475ZM159.719 44.16H161.339V44.7C161.339 47.235 160.109 49.5 157.469 50.325L156.509 48.765C158.759 48.06 159.719 46.38 159.719 44.7V44.16ZM160.079 44.16H161.714V44.7C161.714 46.26 162.689 47.865 164.939 48.54L163.979 50.1C161.354 49.32 160.079 47.13 160.079 44.7V44.16ZM156.989 43.08H164.444V44.64H156.989V43.08ZM159.719 41.55H161.714V43.665H159.719V41.55ZM164.009 45.48H167.234V47.115H164.009V45.48ZM166.229 41.46H168.224V51.735H166.229V41.46ZM159.059 53.505H168.539V55.095H159.059V53.505ZM159.059 50.88H161.054V54.555H159.059V50.88Z" fill="#2D434D"/>
<defs>
<filter id="filter0_d_314_1295" x="0" y="0" width="239" height="105" filterUnits="userSpaceOnUse" color-interpolation-filters="sRGB">
<feFlood flood-opacity="0" result="BackgroundImageFix"/>
<feColorMatrix in="SourceAlpha" type="matrix" values="0 0 0 0 0 0 0 0 0 0 0 0 0 0 0 0 0 0 127 0" result="hardAlpha"/>
<feOffset dy="4"/>
<feGaussianBlur stdDeviation="2"/>
<feComposite in2="hardAlpha" operator="out"/>
<feColorMatrix type="matrix" values="0 0 0 0 0 0 0 0 0 0 0 0 0 0 0 0 0 0 0.25 0"/>
<feBlend mode="normal" in2="BackgroundImageFix" result="effect1_dropShadow_314_1295"/>
<feBlend mode="normal" in="SourceGraphic" in2="effect1_dropShadow_314_1295" result="shape"/>
</filter>
</defs>
</svg>
