<svg width="239" height="107" viewBox="0 0 239 107" fill="none" xmlns="http://www.w3.org/2000/svg">
<g filter="url(#filter0_d_314_1287)">
<rect x="4" width="231" height="99" rx="20" fill="#B2D6FC"/>
</g>
<path d="M67.48 41.43H69.49V55.365H67.48V41.43ZM69.04 46.575H71.5V48.21H69.04V46.575ZM59.14 50.37H60.31C62.65 50.37 64.495 50.295 66.535 49.935L66.73 51.585C64.63 51.96 62.725 52.02 60.31 52.02H59.14V50.37ZM59.14 42.72H65.62V44.325H61.12V51.165H59.14V42.72ZM72.3988 48.945H84.9838V50.535H72.3988V48.945ZM73.9738 53.505H83.7688V55.095H73.9738V53.505ZM73.9738 51.3H75.9688V54.195H73.9738V51.3ZM73.9438 41.76H83.4538V45.615H75.9388V47.055H73.9588V44.205H81.4888V43.275H73.9438V41.76ZM73.9588 46.59H83.7238V48.09H73.9588V46.59ZM93.308 42.87H94.958V43.74C94.958 46.365 93.683 48.735 91.013 49.59L89.993 48.045C92.303 47.295 93.308 45.48 93.308 43.74V42.87ZM93.713 42.87H95.348V43.74C95.348 45.39 96.338 47.085 98.603 47.805L97.583 49.35C94.973 48.525 93.713 46.245 93.713 43.74V42.87ZM99.473 41.445H101.483V49.815H99.473V41.445ZM92.003 50.43H101.483V55.335H99.473V52.02H92.003V50.43ZM90.518 42.255H98.078V43.83H90.518V42.255ZM103.732 49.215H116.317V50.805H103.732V49.215ZM108.982 50.235H110.962V55.335H108.982V50.235ZM105.187 42.12H114.817V47.73H105.187V42.12ZM112.852 43.695H107.152V46.155H112.852V43.695ZM130.206 41.445H132.201V49.485H130.206V41.445ZM131.646 44.685H134.046V46.32H131.646V44.685ZM126.231 42.345H128.376C128.376 46.08 126.066 48.675 121.971 49.815L121.161 48.225C124.506 47.31 126.231 45.495 126.231 43.35V42.345ZM121.821 42.345H127.446V43.95H121.821V42.345ZM127.701 49.665C130.506 49.665 132.351 50.76 132.351 52.5C132.351 54.255 130.506 55.35 127.701 55.35C124.896 55.35 123.021 54.255 123.021 52.5C123.021 50.76 124.896 49.665 127.701 49.665ZM127.701 51.21C126.006 51.21 125.001 51.66 125.001 52.5C125.001 53.355 126.006 53.805 127.701 53.805C129.396 53.805 130.401 53.355 130.401 52.5C130.401 51.66 129.396 51.21 127.701 51.21ZM139.535 42.36C141.725 42.36 143.36 43.785 143.36 45.78C143.36 47.79 141.725 49.215 139.535 49.215C137.36 49.215 135.695 47.79 135.695 45.78C135.695 43.785 137.36 42.36 139.535 42.36ZM139.535 44.07C138.47 44.07 137.66 44.7 137.66 45.78C137.66 46.875 138.47 47.505 139.535 47.505C140.6 47.505 141.41 46.875 141.41 45.78C141.41 44.7 140.6 44.07 139.535 44.07ZM144.665 41.43H146.66V55.365H144.665V41.43ZM135.365 52.545L135.125 50.94C137.57 50.94 140.975 50.91 143.9 50.475L144.05 51.915C141.035 52.515 137.765 52.545 135.365 52.545ZM157.879 50.34H159.859V55.35H157.879V50.34ZM152.614 49.755H165.169V51.375H152.614V49.755ZM157.864 43.935H159.619V44.265C159.619 46.59 157.609 48.615 153.934 49.05L153.244 47.49C156.379 47.13 157.864 45.555 157.864 44.265V43.935ZM158.119 43.935H159.874V44.265C159.874 45.525 161.374 47.13 164.494 47.49L163.789 49.05C160.129 48.63 158.119 46.53 158.119 44.265V43.935ZM153.739 43.035H164.029V44.61H153.739V43.035ZM157.879 41.475H159.859V43.575H157.879V41.475ZM169.518 44.16H171.138V44.7C171.138 47.235 169.908 49.5 167.268 50.325L166.308 48.765C168.558 48.06 169.518 46.38 169.518 44.7V44.16ZM169.878 44.16H171.513V44.7C171.513 46.26 172.488 47.865 174.738 48.54L173.778 50.1C171.153 49.32 169.878 47.13 169.878 44.7V44.16ZM166.788 43.08H174.243V44.64H166.788V43.08ZM169.518 41.55H171.513V43.665H169.518V41.55ZM173.808 45.48H177.033V47.115H173.808V45.48ZM176.028 41.46H178.023V51.735H176.028V41.46ZM168.858 53.505H178.338V55.095H168.858V53.505ZM168.858 50.88H170.853V54.555H168.858V50.88Z" fill="#2D434D"/>
<defs>
<filter id="filter0_d_314_1287" x="0" y="0" width="239" height="107" filterUnits="userSpaceOnUse" color-interpolation-filters="sRGB">
<feFlood flood-opacity="0" result="BackgroundImageFix"/>
<feColorMatrix in="SourceAlpha" type="matrix" values="0 0 0 0 0 0 0 0 0 0 0 0 0 0 0 0 0 0 127 0" result="hardAlpha"/>
<feOffset dy="4"/>
<feGaussianBlur stdDeviation="2"/>
<feComposite in2="hardAlpha" operator="out"/>
<feColorMatrix type="matrix" values="0 0 0 0 0 0 0 0 0 0 0 0 0 0 0 0 0 0 0.25 0"/>
<feBlend mode="normal" in2="BackgroundImageFix" result="effect1_dropShadow_314_1287"/>
<feBlend mode="normal" in="SourceGraphic" in2="effect1_dropShadow_314_1287" result="shape"/>
</filter>
</defs>
</svg>
