<svg width="164" height="109" viewBox="0 0 164 109" fill="none" xmlns="http://www.w3.org/2000/svg">
<path d="M69.06 108.6L57.36 92.87C53.8933 93.5633 50.5133 93.91 47.22 93.91C38.64 93.91 30.7533 91.9167 23.56 87.93C16.4533 83.9433 10.7767 78.3967 6.53 71.29C2.37 64.0967 0.29 56.0367 0.29 47.11C0.29 38.1833 2.37 30.1667 6.53 23.06C10.7767 15.9533 16.4533 10.4067 23.56 6.42C30.7533 2.43333 38.64 0.439998 47.22 0.439998C55.8 0.439998 63.6433 2.43333 70.75 6.42C77.9433 10.4067 83.5767 15.9533 87.65 23.06C91.81 30.1667 93.89 38.1833 93.89 47.11C93.89 54.91 92.2867 62.06 89.08 68.56C85.96 74.9733 81.5833 80.3033 75.95 84.55L95.97 108.6H69.06ZM23.04 47.11C23.04 55.17 25.2067 61.6267 29.54 66.48C33.96 71.2467 39.8533 73.63 47.22 73.63C54.5 73.63 60.3067 71.2033 64.64 66.35C69.06 61.4967 71.27 55.0833 71.27 47.11C71.27 39.05 69.06 32.6367 64.64 27.87C60.3067 23.0167 54.5 20.59 47.22 20.59C39.8533 20.59 33.96 22.9733 29.54 27.74C25.2067 32.5067 23.04 38.9633 23.04 47.11ZM163.711 1.74V63.88C163.711 73.5 160.981 80.91 155.521 86.11C150.148 91.31 142.868 93.91 133.681 93.91C124.061 93.91 116.348 91.18 110.541 85.72C104.735 80.26 101.831 72.5033 101.831 62.45H123.931C123.931 66.2633 124.711 69.1667 126.271 71.16C127.831 73.0667 130.085 74.02 133.031 74.02C135.718 74.02 137.798 73.1533 139.271 71.42C140.745 69.6867 141.481 67.1733 141.481 63.88V1.74H163.711Z" fill="url(#paint0_linear_27_1005)" fill-opacity="0.35"/>
<defs>
<linearGradient id="paint0_linear_27_1005" x1="85" y1="-79" x2="85" y2="174" gradientUnits="userSpaceOnUse">
<stop stop-color="#C2E9FB"/>
<stop offset="1" stop-color="#A1C4FD" stop-opacity="0.94"/>
</linearGradient>
</defs>
</svg>
