<svg width="71" height="78" viewBox="0 0 71 78" fill="none" xmlns="http://www.w3.org/2000/svg">
<path d="M34.86 50.6L32.16 46.97C31.36 47.13 30.58 47.21 29.82 47.21C27.84 47.21 26.02 46.75 24.36 45.83C22.72 44.91 21.41 43.63 20.43 41.99C19.47 40.33 18.99 38.47 18.99 36.41C18.99 34.35 19.47 32.5 20.43 30.86C21.41 29.22 22.72 27.94 24.36 27.02C26.02 26.1 27.84 25.64 29.82 25.64C31.8 25.64 33.61 26.1 35.25 27.02C36.91 27.94 38.21 29.22 39.15 30.86C40.11 32.5 40.59 34.35 40.59 36.41C40.59 38.21 40.22 39.86 39.48 41.36C38.76 42.84 37.75 44.07 36.45 45.05L41.07 50.6H34.86ZM24.24 36.41C24.24 38.27 24.74 39.76 25.74 40.88C26.76 41.98 28.12 42.53 29.82 42.53C31.5 42.53 32.84 41.97 33.84 40.85C34.86 39.73 35.37 38.25 35.37 36.41C35.37 34.55 34.86 33.07 33.84 31.97C32.84 30.85 31.5 30.29 29.82 30.29C28.12 30.29 26.76 30.84 25.74 31.94C24.74 33.04 24.24 34.53 24.24 36.41ZM56.7026 25.94V40.28C56.7026 42.5 56.0726 44.21 54.8126 45.41C53.5726 46.61 51.8926 47.21 49.7726 47.21C47.5526 47.21 45.7726 46.58 44.4326 45.32C43.0926 44.06 42.4226 42.27 42.4226 39.95H47.5226C47.5226 40.83 47.7026 41.5 48.0626 41.96C48.4226 42.4 48.9426 42.62 49.6226 42.62C50.2426 42.62 50.7226 42.42 51.0626 42.02C51.4026 41.62 51.5726 41.04 51.5726 40.28V25.94H56.7026Z" fill="url(#paint0_linear_427_1197)"/>
<path d="M69.3785 37.3326C69.3785 38.7072 68.352 39.8215 67.0857 39.8215C65.8195 39.8215 64.793 38.7072 64.793 37.3326C64.793 35.958 65.8195 34.8438 67.0857 34.8438C68.352 34.8438 69.3785 35.958 69.3785 37.3326Z" fill="url(#paint1_linear_427_1197)" fill-opacity="0.9"/>
<path d="M41.9183 12.8955L40.8188 12.9898L39.5291 13.1804" stroke="url(#paint2_linear_427_1197)" stroke-linecap="round"/>
<path d="M42.1034 15.1645L46.5644 12.2199L49.6868 9.95219L52.5221 7.38139" stroke="url(#paint3_linear_427_1197)" stroke-linecap="round"/>
<path d="M39.002 5.38477L41.7551 8.76218" stroke="url(#paint4_linear_427_1197)" stroke-linecap="round"/>
<path d="M41.5963 8.92285L40.587 10.8579L39.4707 13.1413" stroke="url(#paint5_linear_427_1197)" stroke-linecap="round"/>
<path d="M41.8062 9.0293L42.07 15.2286" stroke="url(#paint6_linear_427_1197)" stroke-linecap="round"/>
<path d="M41.8219 8.63184L52.3027 7.31295" stroke="url(#paint7_linear_427_1197)" stroke-linecap="round"/>
<path d="M39.0423 5.20056L44.2598 5.64779L52.5053 7.29204" stroke="url(#paint8_linear_427_1197)" stroke-linecap="round"/>
<path d="M18.2775 56.9863C4.41889 40.8003 12.6844 12.8592 36.8627 12.8592" stroke="url(#paint9_linear_427_1197)" stroke-width="2"/>
<path d="M18.2774 56.986C30.6096 72.5913 63.8993 68.3072 66.4535 42.3755" stroke="url(#paint10_linear_427_1197)" stroke-width="2"/>
<defs>
<linearGradient id="paint0_linear_427_1197" x1="38.5" y1="7" x2="38.5" y2="70.7175" gradientUnits="userSpaceOnUse">
<stop stop-color="#C2E9FB"/>
<stop offset="1" stop-color="#A1C4FD" stop-opacity="0.94"/>
</linearGradient>
<linearGradient id="paint1_linear_427_1197" x1="67.0857" y1="34.8438" x2="67.0857" y2="39.8215" gradientUnits="userSpaceOnUse">
<stop offset="0.494792" stop-color="#C2E9FB" stop-opacity="0.85"/>
<stop offset="1" stop-color="#A1C4FD" stop-opacity="0.95"/>
</linearGradient>
<linearGradient id="paint2_linear_427_1197" x1="40.7237" y1="13.038" x2="40.7194" y2="13.0016" gradientUnits="userSpaceOnUse">
<stop stop-color="#C2E9FB"/>
<stop offset="1" stop-color="#A1C4FD" stop-opacity="0.94"/>
</linearGradient>
<linearGradient id="paint3_linear_427_1197" x1="47.2962" y1="11.2356" x2="47.5254" y2="11.5463" gradientUnits="userSpaceOnUse">
<stop stop-color="#C2E9FB"/>
<stop offset="1" stop-color="#A1C4FD" stop-opacity="0.94"/>
</linearGradient>
<linearGradient id="paint4_linear_427_1197" x1="40.3785" y1="7.07347" x2="39.6106" y2="7.69948" gradientUnits="userSpaceOnUse">
<stop stop-color="#C2E9FB"/>
<stop offset="1" stop-color="#A1C4FD" stop-opacity="0.94"/>
</linearGradient>
<linearGradient id="paint5_linear_427_1197" x1="40.5335" y1="11.0321" x2="40.5062" y2="11.0183" gradientUnits="userSpaceOnUse">
<stop stop-color="#C2E9FB"/>
<stop offset="1" stop-color="#A1C4FD" stop-opacity="0.94"/>
</linearGradient>
<linearGradient id="paint6_linear_427_1197" x1="41.9381" y1="12.1289" x2="40.9669" y2="12.1703" gradientUnits="userSpaceOnUse">
<stop stop-color="#C2E9FB"/>
<stop offset="1" stop-color="#A1C4FD" stop-opacity="0.94"/>
</linearGradient>
<linearGradient id="paint7_linear_427_1197" x1="47.0623" y1="7.97239" x2="47.1839" y2="8.93893" gradientUnits="userSpaceOnUse">
<stop stop-color="#C2E9FB"/>
<stop offset="1" stop-color="#A1C4FD" stop-opacity="0.94"/>
</linearGradient>
<linearGradient id="paint8_linear_427_1197" x1="45.8819" y1="5.87251" x2="45.8136" y2="6.36496" gradientUnits="userSpaceOnUse">
<stop stop-color="#C2E9FB"/>
<stop offset="1" stop-color="#A1C4FD" stop-opacity="0.94"/>
</linearGradient>
<linearGradient id="paint9_linear_427_1197" x1="34.2944" y1="42.0741" x2="16.1134" y2="22.5462" gradientUnits="userSpaceOnUse">
<stop stop-color="#C2E9FB"/>
<stop offset="1" stop-color="#A1C4FD" stop-opacity="0.94"/>
</linearGradient>
<linearGradient id="paint10_linear_427_1197" x1="34.756" y1="41.6439" x2="54.3613" y2="62.7016" gradientUnits="userSpaceOnUse">
<stop stop-color="#C2E9FB"/>
<stop offset="1" stop-color="#A1C4FD" stop-opacity="0.94"/>
</linearGradient>
</defs>
</svg>
