<svg width="354" height="92" viewBox="0 0 354 92" fill="none" xmlns="http://www.w3.org/2000/svg">
<path d="M32.492 38.488H42.548V39.784H32.492V38.488ZM36.704 36.028H38.3V38.788H36.704V36.028ZM33.536 30.772H41.444V36.232H33.536V30.772ZM39.884 32.044H35.108V34.972H39.884V32.044ZM50.6231 29.956H52.2311V41.068H50.6231V29.956ZM51.8711 34.096H53.8391V35.416H51.8711V34.096ZM43.8551 30.832H45.4391V33.532H47.6711V30.832H49.2551V38.5H43.8551V30.832ZM45.4391 34.768V37.216H47.6711V34.768H45.4391ZM57.6901 30.28C59.3821 30.28 60.6541 31.336 60.6541 32.824C60.6541 34.3 59.3821 35.356 57.6901 35.356C55.9981 35.356 54.7261 34.3 54.7261 32.824C54.7261 31.336 55.9981 30.28 57.6901 30.28ZM57.6901 31.576C56.8741 31.576 56.2621 32.032 56.2621 32.824C56.2621 33.616 56.8741 34.072 57.6901 34.072C58.5061 34.072 59.1061 33.616 59.1061 32.824C59.1061 32.032 58.5061 31.576 57.6901 31.576ZM62.1901 29.956H63.7981V35.512H62.1901V29.956ZM56.3821 35.968H63.7981V39.016H57.9661V40.36H56.4061V37.864H62.2141V37.204H56.3821V35.968ZM56.4061 39.712H64.0741V40.948H56.4061V39.712ZM71.1655 30.556C72.6415 30.556 73.7095 31.612 73.7095 33.136C73.7095 34.66 72.6415 35.716 71.1655 35.716C69.6775 35.716 68.6215 34.66 68.6215 33.136C68.6215 31.612 69.6775 30.556 71.1655 30.556ZM71.1655 31.84C70.5175 31.84 70.0615 32.308 70.0615 33.136C70.0615 33.952 70.5175 34.42 71.1655 34.42C71.8015 34.42 72.2695 33.952 72.2695 33.136C72.2695 32.308 71.8015 31.84 71.1655 31.84ZM76.5415 29.968H78.0535V35.992H76.5415V29.968ZM75.2455 32.272H77.0095V33.556H75.2455V32.272ZM74.1895 30.172H75.6775V35.92H74.1895V30.172ZM70.5175 36.46H72.0895V37.456H76.4935V36.46H78.0535V40.948H70.5175V36.46ZM72.0895 38.692V39.676H76.4935V38.692H72.0895ZM90.6048 29.956H92.1288V41.068H90.6048V29.956ZM89.2008 34.144H91.0368V35.416H89.2008V34.144ZM85.8888 31.312H87.4128C87.4128 34.444 86.5008 36.976 83.3928 38.788L82.4688 37.684C85.0008 36.184 85.8888 34.312 85.8888 31.648V31.312ZM83.0328 31.312H86.3568V32.596H83.0328V31.312ZM88.1448 30.244H89.6328V40.588H88.1448V30.244ZM93.9759 30.448H95.5599V31.756H97.7319V30.448H99.3159V35.308H93.9759V30.448ZM95.5599 32.956V34.06H97.7319V32.956H95.5599ZM100.804 29.956H102.4V35.596H100.804V29.956ZM101.752 32.092H103.864V33.388H101.752V32.092ZM95.0559 36.028H102.4V39.052H96.6639V40.372H95.0799V37.912H100.828V37.252H95.0559V36.028ZM95.0799 39.76H102.724V40.996H95.0799V39.76ZM107.187 31.708H108.447V32.956C108.447 35.464 107.391 38.02 105.351 38.98L104.451 37.72C106.287 36.856 107.187 34.78 107.187 32.956V31.708ZM107.523 31.708H108.783V32.956C108.783 34.636 109.647 36.604 111.471 37.444L110.595 38.704C108.555 37.756 107.523 35.32 107.523 32.956V31.708ZM104.883 31.024H110.979V32.332H104.883V31.024ZM111.795 29.956H113.403V41.068H111.795V29.956ZM113.043 34.192H115.011V35.512H113.043V34.192Z" fill="#172B4D"/>
<path d="M38.3027 54.0625V55H33.5371V54.1943L35.8516 51.6699C36.1055 51.3835 36.3057 51.1361 36.4521 50.9277C36.5986 50.7194 36.7012 50.5322 36.7598 50.3662C36.8216 50.1969 36.8525 50.0326 36.8525 49.873C36.8525 49.6484 36.8102 49.4515 36.7256 49.2822C36.6442 49.1097 36.5238 48.9746 36.3643 48.877C36.2048 48.776 36.0111 48.7256 35.7832 48.7256C35.5195 48.7256 35.2982 48.7826 35.1191 48.8965C34.9401 49.0104 34.805 49.1683 34.7139 49.3701C34.6227 49.5687 34.5771 49.7965 34.5771 50.0537H33.4004C33.4004 49.6403 33.4948 49.2627 33.6836 48.9209C33.8724 48.5758 34.1458 48.3024 34.5039 48.1006C34.862 47.8955 35.2933 47.793 35.7979 47.793C36.2731 47.793 36.6768 47.8727 37.0088 48.0322C37.3408 48.1917 37.5931 48.418 37.7656 48.7109C37.9414 49.0039 38.0293 49.3506 38.0293 49.751C38.0293 49.9723 37.9935 50.1921 37.9219 50.4102C37.8503 50.6283 37.7477 50.8464 37.6143 51.0645C37.484 51.2793 37.3294 51.4958 37.1504 51.7139C36.9714 51.9287 36.7744 52.1468 36.5596 52.3682L35.0215 54.0625H38.3027ZM43.8545 50.8496V52.0117C43.8545 52.5684 43.7992 53.0436 43.6885 53.4375C43.5811 53.8281 43.4248 54.1455 43.2197 54.3896C43.0146 54.6338 42.7689 54.8128 42.4824 54.9268C42.1992 55.0407 41.8818 55.0977 41.5303 55.0977C41.2503 55.0977 40.9899 55.0618 40.749 54.9902C40.5114 54.9186 40.2965 54.8063 40.1045 54.6533C39.9124 54.5003 39.748 54.3034 39.6113 54.0625C39.4779 53.8184 39.3737 53.527 39.2988 53.1885C39.2272 52.8499 39.1914 52.4577 39.1914 52.0117V50.8496C39.1914 50.2897 39.2467 49.8177 39.3574 49.4336C39.4681 49.0462 39.626 48.7321 39.8311 48.4912C40.0361 48.2471 40.2803 48.0697 40.5635 47.959C40.8499 47.8483 41.1689 47.793 41.5205 47.793C41.8037 47.793 42.0641 47.8288 42.3018 47.9004C42.5426 47.9688 42.7575 48.0778 42.9463 48.2275C43.1383 48.3773 43.3011 48.5726 43.4346 48.8135C43.5713 49.0511 43.6755 49.3392 43.7471 49.6777C43.8187 50.013 43.8545 50.4036 43.8545 50.8496ZM42.6777 52.1777V50.6738C42.6777 50.3906 42.6615 50.1416 42.6289 49.9268C42.5964 49.7087 42.5475 49.5247 42.4824 49.375C42.4206 49.222 42.3424 49.0983 42.248 49.0039C42.1536 48.9062 42.0462 48.8363 41.9258 48.7939C41.8053 48.7484 41.6702 48.7256 41.5205 48.7256C41.3382 48.7256 41.1755 48.7614 41.0322 48.833C40.889 48.9014 40.7686 49.012 40.6709 49.165C40.5732 49.318 40.4984 49.5199 40.4463 49.7705C40.3975 50.0179 40.373 50.319 40.373 50.6738V52.1777C40.373 52.4642 40.3893 52.7165 40.4219 52.9346C40.4544 53.1527 40.5033 53.3398 40.5684 53.4961C40.6335 53.6491 40.7116 53.776 40.8027 53.877C40.8971 53.9746 41.0046 54.0462 41.125 54.0918C41.2487 54.1374 41.3838 54.1602 41.5303 54.1602C41.7158 54.1602 41.8802 54.1243 42.0234 54.0527C42.1667 53.9811 42.2871 53.8672 42.3848 53.7109C42.4824 53.5514 42.5557 53.3447 42.6045 53.0908C42.6533 52.8369 42.6777 52.5326 42.6777 52.1777ZM49.6699 54.0625V55H44.9043V54.1943L47.2188 51.6699C47.4727 51.3835 47.6729 51.1361 47.8193 50.9277C47.9658 50.7194 48.0684 50.5322 48.127 50.3662C48.1888 50.1969 48.2197 50.0326 48.2197 49.873C48.2197 49.6484 48.1774 49.4515 48.0928 49.2822C48.0114 49.1097 47.891 48.9746 47.7314 48.877C47.5719 48.776 47.3783 48.7256 47.1504 48.7256C46.8867 48.7256 46.6654 48.7826 46.4863 48.8965C46.3073 49.0104 46.1722 49.1683 46.0811 49.3701C45.9899 49.5687 45.9443 49.7965 45.9443 50.0537H44.7676C44.7676 49.6403 44.862 49.2627 45.0508 48.9209C45.2396 48.5758 45.513 48.3024 45.8711 48.1006C46.2292 47.8955 46.6605 47.793 47.165 47.793C47.6403 47.793 48.0439 47.8727 48.376 48.0322C48.708 48.1917 48.9603 48.418 49.1328 48.7109C49.3086 49.0039 49.3965 49.3506 49.3965 49.751C49.3965 49.9723 49.3607 50.1921 49.2891 50.4102C49.2174 50.6283 49.1149 50.8464 48.9814 51.0645C48.8512 51.2793 48.6966 51.4958 48.5176 51.7139C48.3385 51.9287 48.1416 52.1468 47.9268 52.3682L46.3887 54.0625H49.6699ZM51.9697 50.9131H52.6729C52.9463 50.9131 53.1725 50.8659 53.3516 50.7715C53.5339 50.6771 53.6689 50.5469 53.7568 50.3809C53.8447 50.2148 53.8887 50.0244 53.8887 49.8096C53.8887 49.585 53.848 49.3929 53.7666 49.2334C53.6885 49.0706 53.568 48.9453 53.4053 48.8574C53.2458 48.7695 53.0423 48.7256 52.7949 48.7256C52.5866 48.7256 52.3978 48.7679 52.2285 48.8525C52.0625 48.9339 51.9307 49.0511 51.833 49.2041C51.7354 49.3538 51.6865 49.5329 51.6865 49.7412H50.5049C50.5049 49.3636 50.6042 49.0283 50.8027 48.7354C51.0013 48.4424 51.2715 48.2129 51.6133 48.0469C51.9583 47.8776 52.3457 47.793 52.7754 47.793C53.2344 47.793 53.6348 47.8695 53.9766 48.0225C54.3216 48.1722 54.5902 48.3968 54.7822 48.6963C54.9743 48.9958 55.0703 49.3669 55.0703 49.8096C55.0703 50.0114 55.0231 50.2165 54.9287 50.4248C54.8343 50.6331 54.6943 50.8236 54.5088 50.9961C54.3232 51.1654 54.0921 51.3037 53.8154 51.4111C53.5387 51.5153 53.2181 51.5674 52.8535 51.5674H51.9697V50.9131ZM51.9697 51.8311V51.1865H52.8535C53.2702 51.1865 53.625 51.2354 53.918 51.333C54.2142 51.4307 54.4551 51.5658 54.6406 51.7383C54.8262 51.9076 54.9613 52.1012 55.0459 52.3193C55.1338 52.5374 55.1777 52.7686 55.1777 53.0127C55.1777 53.3447 55.1175 53.641 54.9971 53.9014C54.8799 54.1585 54.7122 54.3766 54.4941 54.5557C54.276 54.7347 54.0205 54.8698 53.7275 54.9609C53.4378 55.0521 53.1221 55.0977 52.7803 55.0977C52.4743 55.0977 52.1813 55.0553 51.9014 54.9707C51.6214 54.8861 51.3708 54.7607 51.1494 54.5947C50.9281 54.4255 50.7523 54.2155 50.6221 53.9648C50.4951 53.7109 50.4316 53.418 50.4316 53.0859H51.6084C51.6084 53.2975 51.6572 53.4847 51.7549 53.6475C51.8558 53.807 51.9958 53.9323 52.1748 54.0234C52.3571 54.1146 52.5654 54.1602 52.7998 54.1602C53.0472 54.1602 53.2604 54.1162 53.4395 54.0283C53.6185 53.9404 53.7552 53.8102 53.8496 53.6377C53.9473 53.4652 53.9961 53.2568 53.9961 53.0127C53.9961 52.736 53.9424 52.5114 53.835 52.3389C53.7275 52.1663 53.5745 52.0394 53.376 51.958C53.1774 51.8734 52.943 51.8311 52.6729 51.8311H51.9697ZM59.4307 47.8906L56.6621 55.6104H55.7393L58.5127 47.8906H59.4307ZM64.8115 50.8496V52.0117C64.8115 52.5684 64.7562 53.0436 64.6455 53.4375C64.5381 53.8281 64.3818 54.1455 64.1768 54.3896C63.9717 54.6338 63.7259 54.8128 63.4395 54.9268C63.1562 55.0407 62.8389 55.0977 62.4873 55.0977C62.2074 55.0977 61.9469 55.0618 61.7061 54.9902C61.4684 54.9186 61.2536 54.8063 61.0615 54.6533C60.8695 54.5003 60.7051 54.3034 60.5684 54.0625C60.4349 53.8184 60.3307 53.527 60.2559 53.1885C60.1842 52.8499 60.1484 52.4577 60.1484 52.0117V50.8496C60.1484 50.2897 60.2038 49.8177 60.3145 49.4336C60.4251 49.0462 60.583 48.7321 60.7881 48.4912C60.9932 48.2471 61.2373 48.0697 61.5205 47.959C61.807 47.8483 62.126 47.793 62.4775 47.793C62.7607 47.793 63.0212 47.8288 63.2588 47.9004C63.4997 47.9688 63.7145 48.0778 63.9033 48.2275C64.0954 48.3773 64.2581 48.5726 64.3916 48.8135C64.5283 49.0511 64.6325 49.3392 64.7041 49.6777C64.7757 50.013 64.8115 50.4036 64.8115 50.8496ZM63.6348 52.1777V50.6738C63.6348 50.3906 63.6185 50.1416 63.5859 49.9268C63.5534 49.7087 63.5046 49.5247 63.4395 49.375C63.3776 49.222 63.2995 49.0983 63.2051 49.0039C63.1107 48.9062 63.0033 48.8363 62.8828 48.7939C62.7624 48.7484 62.6273 48.7256 62.4775 48.7256C62.2952 48.7256 62.1325 48.7614 61.9893 48.833C61.846 48.9014 61.7256 49.012 61.6279 49.165C61.5303 49.318 61.4554 49.5199 61.4033 49.7705C61.3545 50.0179 61.3301 50.319 61.3301 50.6738V52.1777C61.3301 52.4642 61.3464 52.7165 61.3789 52.9346C61.4115 53.1527 61.4603 53.3398 61.5254 53.4961C61.5905 53.6491 61.6686 53.776 61.7598 53.877C61.8542 53.9746 61.9616 54.0462 62.082 54.0918C62.2057 54.1374 62.3408 54.1602 62.4873 54.1602C62.6729 54.1602 62.8372 54.1243 62.9805 54.0527C63.1237 53.9811 63.2441 53.8672 63.3418 53.7109C63.4395 53.5514 63.5127 53.3447 63.5615 53.0908C63.6104 52.8369 63.6348 52.5326 63.6348 52.1777ZM66.8086 54.0723H66.9062C67.3555 54.0723 67.7298 54.0137 68.0293 53.8965C68.332 53.776 68.5729 53.61 68.752 53.3984C68.931 53.1868 69.0596 52.9378 69.1377 52.6514C69.2158 52.3649 69.2549 52.054 69.2549 51.7188V50.4932C69.2549 50.2035 69.224 49.9495 69.1621 49.7314C69.1035 49.5101 69.0189 49.3262 68.9082 49.1797C68.8008 49.0299 68.6755 48.9176 68.5322 48.8428C68.3923 48.7679 68.2409 48.7305 68.0781 48.7305C67.8991 48.7305 67.738 48.7712 67.5947 48.8525C67.4548 48.9307 67.3359 49.0397 67.2383 49.1797C67.1439 49.3164 67.0706 49.4775 67.0186 49.6631C66.9697 49.8454 66.9453 50.0407 66.9453 50.249C66.9453 50.4443 66.9681 50.6331 67.0137 50.8154C67.0625 50.9945 67.1341 51.154 67.2285 51.2939C67.3229 51.4339 67.4417 51.5446 67.585 51.626C67.7282 51.7074 67.8958 51.748 68.0879 51.748C68.2702 51.748 68.4378 51.7139 68.5908 51.6455C68.7438 51.5739 68.8773 51.4779 68.9912 51.3574C69.1051 51.237 69.1947 51.1019 69.2598 50.9521C69.3249 50.8024 69.3607 50.6494 69.3672 50.4932L69.8164 50.6299C69.8164 50.8773 69.7643 51.1214 69.6602 51.3623C69.5592 51.5999 69.4176 51.818 69.2354 52.0166C69.0563 52.2119 68.8464 52.3682 68.6055 52.4854C68.3678 52.6025 68.109 52.6611 67.8291 52.6611C67.4906 52.6611 67.1911 52.5977 66.9307 52.4707C66.6735 52.3405 66.4587 52.1647 66.2861 51.9434C66.1169 51.722 65.9899 51.4681 65.9053 51.1816C65.8206 50.8952 65.7783 50.5941 65.7783 50.2783C65.7783 49.9365 65.8304 49.6159 65.9346 49.3164C66.0387 49.0169 66.1901 48.7533 66.3887 48.5254C66.5872 48.2943 66.8281 48.1152 67.1113 47.9883C67.3978 47.8581 67.7217 47.793 68.083 47.793C68.4671 47.793 68.804 47.8678 69.0938 48.0176C69.3835 48.1673 69.6276 48.374 69.8262 48.6377C70.0247 48.9014 70.1745 49.2074 70.2754 49.5557C70.3763 49.904 70.4268 50.2783 70.4268 50.6787V51.0938C70.4268 51.5137 70.3893 51.9189 70.3145 52.3096C70.2396 52.6969 70.1175 53.0566 69.9482 53.3887C69.7822 53.7174 69.5625 54.0072 69.2891 54.2578C69.0189 54.5052 68.6868 54.6989 68.293 54.8389C67.9023 54.9756 67.4434 55.0439 66.916 55.0439H66.8086V54.0723ZM74.7041 47.8906L71.9355 55.6104H71.0127L73.7861 47.8906H74.7041ZM80.2168 54.0625V55H75.4512V54.1943L77.7656 51.6699C78.0195 51.3835 78.2197 51.1361 78.3662 50.9277C78.5127 50.7194 78.6152 50.5322 78.6738 50.3662C78.7357 50.1969 78.7666 50.0326 78.7666 49.873C78.7666 49.6484 78.7243 49.4515 78.6396 49.2822C78.5583 49.1097 78.4378 48.9746 78.2783 48.877C78.1188 48.776 77.9251 48.7256 77.6973 48.7256C77.4336 48.7256 77.2122 48.7826 77.0332 48.8965C76.8542 49.0104 76.7191 49.1683 76.6279 49.3701C76.5368 49.5687 76.4912 49.7965 76.4912 50.0537H75.3145C75.3145 49.6403 75.4089 49.2627 75.5977 48.9209C75.7865 48.5758 76.0599 48.3024 76.418 48.1006C76.776 47.8955 77.2074 47.793 77.7119 47.793C78.1872 47.793 78.5908 47.8727 78.9229 48.0322C79.2549 48.1917 79.5072 48.418 79.6797 48.7109C79.8555 49.0039 79.9434 49.3506 79.9434 49.751C79.9434 49.9723 79.9076 50.1921 79.8359 50.4102C79.7643 50.6283 79.6618 50.8464 79.5283 51.0645C79.3981 51.2793 79.2435 51.4958 79.0645 51.7139C78.8854 51.9287 78.6885 52.1468 78.4736 52.3682L76.9355 54.0625H80.2168ZM82.5166 50.9131H83.2197C83.4932 50.9131 83.7194 50.8659 83.8984 50.7715C84.0807 50.6771 84.2158 50.5469 84.3037 50.3809C84.3916 50.2148 84.4355 50.0244 84.4355 49.8096C84.4355 49.585 84.3949 49.3929 84.3135 49.2334C84.2354 49.0706 84.1149 48.9453 83.9521 48.8574C83.7926 48.7695 83.5892 48.7256 83.3418 48.7256C83.1335 48.7256 82.9447 48.7679 82.7754 48.8525C82.6094 48.9339 82.4775 49.0511 82.3799 49.2041C82.2822 49.3538 82.2334 49.5329 82.2334 49.7412H81.0518C81.0518 49.3636 81.151 49.0283 81.3496 48.7354C81.5482 48.4424 81.8184 48.2129 82.1602 48.0469C82.5052 47.8776 82.8926 47.793 83.3223 47.793C83.7812 47.793 84.1816 47.8695 84.5234 48.0225C84.8685 48.1722 85.137 48.3968 85.3291 48.6963C85.5212 48.9958 85.6172 49.3669 85.6172 49.8096C85.6172 50.0114 85.57 50.2165 85.4756 50.4248C85.3812 50.6331 85.2412 50.8236 85.0557 50.9961C84.8701 51.1654 84.639 51.3037 84.3623 51.4111C84.0856 51.5153 83.765 51.5674 83.4004 51.5674H82.5166V50.9131ZM82.5166 51.8311V51.1865H83.4004C83.8171 51.1865 84.1719 51.2354 84.4648 51.333C84.7611 51.4307 85.002 51.5658 85.1875 51.7383C85.373 51.9076 85.5081 52.1012 85.5928 52.3193C85.6807 52.5374 85.7246 52.7686 85.7246 53.0127C85.7246 53.3447 85.6644 53.641 85.5439 53.9014C85.4268 54.1585 85.2591 54.3766 85.041 54.5557C84.8229 54.7347 84.5674 54.8698 84.2744 54.9609C83.9847 55.0521 83.6689 55.0977 83.3271 55.0977C83.0212 55.0977 82.7282 55.0553 82.4482 54.9707C82.1683 54.8861 81.9176 54.7607 81.6963 54.5947C81.4749 54.4255 81.2992 54.2155 81.1689 53.9648C81.042 53.7109 80.9785 53.418 80.9785 53.0859H82.1553C82.1553 53.2975 82.2041 53.4847 82.3018 53.6475C82.4027 53.807 82.5426 53.9323 82.7217 54.0234C82.904 54.1146 83.1123 54.1602 83.3467 54.1602C83.5941 54.1602 83.8073 54.1162 83.9863 54.0283C84.1654 53.9404 84.3021 53.8102 84.3965 53.6377C84.4941 53.4652 84.543 53.2568 84.543 53.0127C84.543 52.736 84.4893 52.5114 84.3818 52.3389C84.2744 52.1663 84.1214 52.0394 83.9229 51.958C83.7243 51.8734 83.4899 51.8311 83.2197 51.8311H82.5166Z" fill="#484C52"/>
<g filter="url(#filter0_d_505_1214)">
<rect x="4" width="346" height="84" rx="12" fill="white"/>
<rect x="4.5" y="0.5" width="345" height="83" rx="11.5" stroke="#A1C4FD" stroke-opacity="0.94"/>
</g>
<path d="M324.367 55.0303L336.61 42.1032" stroke="#A1C4FD" stroke-opacity="0.95" stroke-width="3" stroke-linecap="round"/>
<path d="M324 29.0444L336.327 41.8914" stroke="#A1C4FD" stroke-opacity="0.95" stroke-width="3" stroke-linecap="round"/>
<defs>
<filter id="filter0_d_505_1214" x="0" y="0" width="354" height="92" filterUnits="userSpaceOnUse" color-interpolation-filters="sRGB">
<feFlood flood-opacity="0" result="BackgroundImageFix"/>
<feColorMatrix in="SourceAlpha" type="matrix" values="0 0 0 0 0 0 0 0 0 0 0 0 0 0 0 0 0 0 127 0" result="hardAlpha"/>
<feOffset dy="4"/>
<feGaussianBlur stdDeviation="2"/>
<feComposite in2="hardAlpha" operator="out"/>
<feColorMatrix type="matrix" values="0 0 0 0 0 0 0 0 0 0 0 0 0 0 0 0 0 0 0.25 0"/>
<feBlend mode="normal" in2="BackgroundImageFix" result="effect1_dropShadow_505_1214"/>
<feBlend mode="normal" in="SourceGraphic" in2="effect1_dropShadow_505_1214" result="shape"/>
</filter>
</defs>
</svg>
