<svg width="393" height="104" viewBox="0 0 393 104" fill="none" xmlns="http://www.w3.org/2000/svg">
<g filter="url(#filter0_d_987_1066)">
<rect x="21" y="12" width="357" height="60" rx="30" fill="url(#paint0_linear_987_1066)"/>
</g>
<path d="M169.286 32.556H174.302V34.888H169.286V32.556ZM173.004 29.586H175.93V39.926H173.004V29.586ZM162.466 40.784H175.93V46.262H165.392V48.814H162.51V44.15H173.026V43.028H162.466V40.784ZM162.51 47.472H176.502V49.738H162.51V47.472ZM163.544 30.246H165.92V31.698C165.92 35.548 164.116 38.87 160.222 40.102L158.726 37.792C162.114 36.78 163.544 34.294 163.544 31.698V30.246ZM164.116 30.246H166.492V31.698C166.492 34.118 167.856 36.472 171.068 37.44L169.572 39.706C165.854 38.496 164.116 35.35 164.116 31.698V30.246ZM190.162 34.514H194.034V36.89H190.162V34.514ZM193.242 29.586H196.168V41.686H193.242V29.586ZM189.26 42.126C193.572 42.126 196.234 43.6 196.234 46.064C196.234 48.55 193.572 49.98 189.26 49.98C184.948 49.98 182.286 48.55 182.286 46.064C182.286 43.6 184.948 42.126 189.26 42.126ZM189.26 44.348C186.62 44.348 185.212 44.898 185.212 46.064C185.212 47.208 186.62 47.758 189.26 47.758C191.922 47.758 193.33 47.208 193.33 46.064C193.33 44.898 191.922 44.348 189.26 44.348ZM183.826 31.632H186.202V32.908C186.202 36.802 184.398 40.366 180.504 41.686L179.008 39.376C182.374 38.232 183.826 35.526 183.826 32.908V31.632ZM184.442 31.632H186.796V32.908C186.796 35.306 188.182 37.792 191.394 38.87L189.964 41.18C186.18 39.926 184.442 36.538 184.442 32.908V31.632ZM179.8 30.818H190.756V33.15H179.8V30.818ZM203.999 37.836H206.925V40.916H203.999V37.836ZM205.429 30.4C208.377 30.4 210.511 32.094 210.511 34.558C210.511 36.978 208.377 38.672 205.429 38.672C202.481 38.672 200.347 36.978 200.347 34.558C200.347 32.094 202.481 30.4 205.429 30.4ZM205.429 32.6C204.043 32.6 203.075 33.304 203.075 34.558C203.075 35.79 204.043 36.494 205.429 36.494C206.837 36.494 207.783 35.79 207.783 34.558C207.783 33.304 206.837 32.6 205.429 32.6ZM212.601 29.608H215.527V45.14H212.601V29.608ZM214.493 35.988H218.079V38.386H214.493V35.988ZM201.931 47.252H216.209V49.606H201.931V47.252ZM201.931 43.798H204.879V48.264H201.931V43.798ZM199.621 42.5L199.291 40.168C202.745 40.168 207.519 40.146 211.523 39.574L211.721 41.664C207.607 42.434 202.987 42.5 199.621 42.5ZM224.281 41.466H227.141V46.262H224.281V41.466ZM230.727 41.444H233.587V46.262H230.727V41.444ZM219.617 45.338H238.053V47.714H219.617V45.338ZM221.685 30.906H235.985V37.66H224.633V41.114H221.729V35.372H233.081V33.216H221.685V30.906ZM221.729 39.882H236.447V42.236H221.729V39.882Z" fill="white"/>
<defs>
<filter id="filter0_d_987_1066" x="-1" y="0" width="401" height="104" filterUnits="userSpaceOnUse" color-interpolation-filters="sRGB">
<feFlood flood-opacity="0" result="BackgroundImageFix"/>
<feColorMatrix in="SourceAlpha" type="matrix" values="0 0 0 0 0 0 0 0 0 0 0 0 0 0 0 0 0 0 127 0" result="hardAlpha"/>
<feOffset dy="10"/>
<feGaussianBlur stdDeviation="11"/>
<feColorMatrix type="matrix" values="0 0 0 0 0.631373 0 0 0 0 0.768627 0 0 0 0 0.992157 0 0 0 0.4 0"/>
<feBlend mode="normal" in2="BackgroundImageFix" result="effect1_dropShadow_987_1066"/>
<feBlend mode="normal" in="SourceGraphic" in2="effect1_dropShadow_987_1066" result="shape"/>
</filter>
<linearGradient id="paint0_linear_987_1066" x1="199.5" y1="12" x2="199.5" y2="72" gradientUnits="userSpaceOnUse">
<stop stop-color="#C2E9FB"/>
<stop offset="1" stop-color="#A1C4FD" stop-opacity="0.94"/>
</linearGradient>
</defs>
</svg>
