<svg width="361" height="55" viewBox="0 0 361 55" fill="none" xmlns="http://www.w3.org/2000/svg">
<g filter="url(#filter0_d_126_1215)">
<rect x="4" width="353" height="47" rx="23.5" fill="white"/>
<rect x="4.5" y="0.5" width="352" height="46" rx="23" stroke="#A1C4FD" stroke-opacity="0.94"/>
</g>
<path d="M325.888 15.3159C327.332 15.3146 328.744 15.7352 329.945 16.5245C331.146 17.3138 332.083 18.4363 332.637 19.75C333.19 21.0638 333.336 22.5097 333.055 23.9049C332.774 25.3002 332.079 26.582 331.059 27.5882C330.038 28.5945 328.737 29.2799 327.321 29.5579C325.905 29.8359 324.437 29.6939 323.102 29.1498C321.768 28.6058 320.627 27.6842 319.825 26.5016C319.023 25.319 318.594 23.9286 318.594 22.5062C318.603 20.603 319.374 18.7801 320.74 17.4337C322.105 16.0873 323.955 15.3262 325.888 15.3159ZM325.888 13.9697C324.174 13.9697 322.498 14.4704 321.073 15.4084C319.647 16.3464 318.537 17.6796 317.881 19.2394C317.225 20.7993 317.053 22.5157 317.387 24.1716C317.722 25.8275 318.547 27.3486 319.759 28.5424C320.971 29.7363 322.516 30.5493 324.197 30.8787C325.878 31.208 327.621 31.039 329.204 30.3929C330.788 29.7468 332.141 28.6526 333.094 27.2488C334.046 25.845 334.554 24.1946 334.554 22.5062C334.554 20.2422 333.641 18.0709 332.016 16.47C330.391 14.8691 328.186 13.9697 325.888 13.9697Z" fill="#A1C4FD"/>
<path d="M338.333 33.8597L333.42 28.9873L332.473 29.9132L337.387 34.7855C337.448 34.8468 337.522 34.8954 337.603 34.9287C337.683 34.962 337.77 34.9793 337.858 34.9796C337.945 34.9799 338.032 34.9632 338.113 34.9305C338.194 34.8978 338.268 34.8496 338.33 34.7888C338.392 34.728 338.442 34.6558 338.475 34.5762C338.509 34.4966 338.527 34.4112 338.527 34.3249C338.527 34.2386 338.51 34.1531 338.477 34.0733C338.444 33.9935 338.395 33.9209 338.333 33.8597Z" fill="#A1C4FD"/>
<defs>
<filter id="filter0_d_126_1215" x="0" y="0" width="361" height="55" filterUnits="userSpaceOnUse" color-interpolation-filters="sRGB">
<feFlood flood-opacity="0" result="BackgroundImageFix"/>
<feColorMatrix in="SourceAlpha" type="matrix" values="0 0 0 0 0 0 0 0 0 0 0 0 0 0 0 0 0 0 127 0" result="hardAlpha"/>
<feOffset dy="4"/>
<feGaussianBlur stdDeviation="2"/>
<feComposite in2="hardAlpha" operator="out"/>
<feColorMatrix type="matrix" values="0 0 0 0 0 0 0 0 0 0 0 0 0 0 0 0 0 0 0.25 0"/>
<feBlend mode="normal" in2="BackgroundImageFix" result="effect1_dropShadow_126_1215"/>
<feBlend mode="normal" in="SourceGraphic" in2="effect1_dropShadow_126_1215" result="shape"/>
</filter>
</defs>
</svg>
