<svg width="67" height="45" viewBox="0 0 67 45" fill="none" xmlns="http://www.w3.org/2000/svg">
<g filter="url(#filter0_d_844_1091)">
<ellipse cx="33.5" cy="18.5" rx="29.5" ry="18.5" fill="#C2E9FB" fill-opacity="0.8" shape-rendering="crispEdges"/>
</g>
<path d="M22.354 20.854C22.354 20.6782 22.3101 20.5195 22.2222 20.3779C22.1343 20.2314 21.9658 20.0996 21.7168 19.9824C21.4727 19.8652 21.1113 19.7578 20.6328 19.6602C20.2129 19.5674 19.8271 19.4575 19.4756 19.3306C19.1289 19.1987 18.8311 19.04 18.582 18.8545C18.333 18.6689 18.1401 18.4492 18.0034 18.1953C17.8667 17.9414 17.7983 17.6484 17.7983 17.3164C17.7983 16.9941 17.8691 16.689 18.0107 16.4009C18.1523 16.1128 18.355 15.8589 18.6187 15.6392C18.8823 15.4194 19.2021 15.2461 19.5781 15.1191C19.959 14.9922 20.3838 14.9287 20.8525 14.9287C21.5166 14.9287 22.0854 15.041 22.5591 15.2656C23.0376 15.4854 23.4038 15.7856 23.6577 16.1665C23.9116 16.5425 24.0386 16.9673 24.0386 17.4409H22.2734C22.2734 17.231 22.2197 17.0356 22.1123 16.855C22.0098 16.6694 21.8535 16.5205 21.6436 16.4082C21.4336 16.291 21.1699 16.2324 20.8525 16.2324C20.5498 16.2324 20.2983 16.2812 20.0981 16.3789C19.9028 16.4717 19.7563 16.5938 19.6587 16.7451C19.5659 16.8965 19.5195 17.0625 19.5195 17.2432C19.5195 17.375 19.5439 17.4946 19.5928 17.6021C19.6465 17.7046 19.7344 17.7998 19.8564 17.8877C19.9785 17.9707 20.1445 18.0488 20.3545 18.1221C20.5693 18.1953 20.8379 18.2661 21.1602 18.3345C21.7656 18.4614 22.2856 18.625 22.7202 18.8252C23.1597 19.0205 23.4966 19.2744 23.731 19.5869C23.9653 19.8945 24.0825 20.2852 24.0825 20.7588C24.0825 21.1104 24.0068 21.4326 23.8555 21.7256C23.709 22.0137 23.4941 22.2651 23.2109 22.48C22.9277 22.6899 22.5884 22.8535 22.1929 22.9707C21.8022 23.0879 21.3628 23.1465 20.8745 23.1465C20.1567 23.1465 19.5488 23.0195 19.0508 22.7656C18.5527 22.5068 18.1743 22.1772 17.9155 21.7769C17.6616 21.3716 17.5347 20.9517 17.5347 20.5171H19.2412C19.2607 20.8442 19.3511 21.1055 19.5122 21.3008C19.6782 21.4912 19.8833 21.6304 20.1274 21.7183C20.3765 21.8013 20.6328 21.8428 20.8965 21.8428C21.2139 21.8428 21.48 21.8013 21.6948 21.7183C21.9097 21.6304 22.0732 21.5132 22.1855 21.3667C22.2979 21.2153 22.354 21.0444 22.354 20.854ZM29.1216 23.1465C28.5356 23.1465 28.0059 23.0513 27.5322 22.8608C27.0635 22.6655 26.6631 22.3945 26.3311 22.0479C26.0039 21.7012 25.7524 21.2935 25.5767 20.8247C25.4009 20.356 25.313 19.8506 25.313 19.3086V19.0156C25.313 18.3955 25.4033 17.834 25.584 17.3311C25.7646 16.8281 26.0161 16.3984 26.3384 16.042C26.6606 15.6807 27.0415 15.4048 27.481 15.2144C27.9204 15.0239 28.3965 14.9287 28.9092 14.9287C29.4756 14.9287 29.9712 15.0239 30.396 15.2144C30.8208 15.4048 31.1724 15.6733 31.4507 16.02C31.7339 16.3618 31.9438 16.7695 32.0806 17.2432C32.2222 17.7168 32.293 18.2393 32.293 18.8105V19.5649H26.1699V18.2979H30.5498V18.1587C30.54 17.8413 30.4766 17.5435 30.3594 17.2651C30.2471 16.9868 30.0737 16.7622 29.8394 16.5913C29.605 16.4204 29.2925 16.335 28.9019 16.335C28.6089 16.335 28.3477 16.3984 28.1182 16.5254C27.8936 16.6475 27.7056 16.8257 27.5542 17.0601C27.4028 17.2944 27.2856 17.5776 27.2026 17.9097C27.1245 18.2368 27.0854 18.6055 27.0854 19.0156V19.3086C27.0854 19.6553 27.1318 19.9775 27.2246 20.2754C27.3223 20.5684 27.4639 20.8247 27.6494 21.0444C27.835 21.2642 28.0596 21.4375 28.3232 21.5645C28.5869 21.6865 28.8872 21.7476 29.2241 21.7476C29.6489 21.7476 30.0273 21.6621 30.3594 21.4912C30.6914 21.3203 30.9795 21.0786 31.2236 20.7661L32.1538 21.667C31.9829 21.916 31.7607 22.1553 31.4873 22.3848C31.2139 22.6094 30.8794 22.7925 30.4839 22.9341C30.0933 23.0757 29.6392 23.1465 29.1216 23.1465ZM35.4204 16.7671V23H33.6553V15.0752H35.3179L35.4204 16.7671ZM35.1055 18.7446L34.5342 18.7373C34.5391 18.1758 34.6172 17.6606 34.7686 17.1919C34.9248 16.7231 35.1396 16.3203 35.4131 15.9834C35.6914 15.6465 36.0234 15.3877 36.4092 15.207C36.7949 15.0215 37.2246 14.9287 37.6982 14.9287C38.0791 14.9287 38.4233 14.9824 38.731 15.0898C39.0435 15.1924 39.3096 15.3608 39.5293 15.5952C39.7539 15.8296 39.9248 16.1348 40.042 16.5107C40.1592 16.8818 40.2178 17.3384 40.2178 17.8804V23H38.4453V17.873C38.4453 17.4922 38.3892 17.1919 38.2769 16.9722C38.1694 16.7476 38.0107 16.5889 37.8008 16.4961C37.5957 16.3984 37.3394 16.3496 37.0317 16.3496C36.729 16.3496 36.458 16.4131 36.2188 16.54C35.9795 16.667 35.7769 16.8403 35.6108 17.0601C35.4497 17.2798 35.3252 17.5337 35.2373 17.8218C35.1494 18.1099 35.1055 18.4175 35.1055 18.7446ZM46.8535 21.3594V11.75H48.626V23H47.022L46.8535 21.3594ZM41.6973 19.1255V18.9717C41.6973 18.3711 41.7681 17.8242 41.9097 17.3311C42.0513 16.833 42.2563 16.4058 42.5249 16.0493C42.7935 15.688 43.1206 15.4121 43.5063 15.2217C43.8921 15.0264 44.3267 14.9287 44.8101 14.9287C45.2886 14.9287 45.7085 15.0215 46.0698 15.207C46.4312 15.3926 46.7388 15.6587 46.9927 16.0054C47.2466 16.3472 47.4492 16.7573 47.6006 17.2358C47.752 17.7095 47.8594 18.2368 47.9229 18.8179V19.3086C47.8594 19.875 47.752 20.3926 47.6006 20.8613C47.4492 21.3301 47.2466 21.7354 46.9927 22.0771C46.7388 22.4189 46.4287 22.6826 46.0625 22.8682C45.7012 23.0537 45.2788 23.1465 44.7954 23.1465C44.3169 23.1465 43.8848 23.0464 43.499 22.8462C43.1182 22.646 42.7935 22.3652 42.5249 22.0039C42.2563 21.6426 42.0513 21.2178 41.9097 20.7295C41.7681 20.2363 41.6973 19.7017 41.6973 19.1255ZM43.4624 18.9717V19.1255C43.4624 19.4868 43.4941 19.8237 43.5576 20.1362C43.626 20.4487 43.731 20.7246 43.8726 20.9639C44.0142 21.1982 44.1973 21.3838 44.4219 21.5205C44.6514 21.6523 44.9248 21.7183 45.2422 21.7183C45.6426 21.7183 45.9722 21.6304 46.231 21.4546C46.4897 21.2788 46.6924 21.042 46.8389 20.7441C46.9902 20.4414 47.0928 20.1045 47.1465 19.7334V18.4077C47.1172 18.1196 47.0562 17.8511 46.9634 17.6021C46.8755 17.353 46.7559 17.1357 46.6045 16.9502C46.4531 16.7598 46.2651 16.6133 46.0405 16.5107C45.8208 16.4033 45.5596 16.3496 45.2568 16.3496C44.9346 16.3496 44.6611 16.418 44.4365 16.5547C44.2119 16.6914 44.0264 16.8794 43.8799 17.1187C43.7383 17.3579 43.6333 17.6362 43.5649 17.9536C43.4966 18.271 43.4624 18.6104 43.4624 18.9717Z" fill="#484C52" fill-opacity="0.9"/>
<defs>
<filter id="filter0_d_844_1091" x="0" y="0" width="67" height="45" filterUnits="userSpaceOnUse" color-interpolation-filters="sRGB">
<feFlood flood-opacity="0" result="BackgroundImageFix"/>
<feColorMatrix in="SourceAlpha" type="matrix" values="0 0 0 0 0 0 0 0 0 0 0 0 0 0 0 0 0 0 127 0" result="hardAlpha"/>
<feOffset dy="4"/>
<feGaussianBlur stdDeviation="2"/>
<feComposite in2="hardAlpha" operator="out"/>
<feColorMatrix type="matrix" values="0 0 0 0 0 0 0 0 0 0 0 0 0 0 0 0 0 0 0.25 0"/>
<feBlend mode="normal" in2="BackgroundImageFix" result="effect1_dropShadow_844_1091"/>
<feBlend mode="normal" in="SourceGraphic" in2="effect1_dropShadow_844_1091" result="shape"/>
</filter>
</defs>
</svg>
