<svg width="63" height="33" viewBox="0 0 63 33" fill="none" xmlns="http://www.w3.org/2000/svg">
<path d="M4.675 17.342H6.936V19.892H4.675V17.342ZM11.56 7.771H13.821V23.513H11.56V7.771ZM1.037 20.895L0.765 19.076C3.621 19.059 7.429 19.059 10.744 18.617L10.897 20.249C7.48 20.878 3.825 20.895 1.037 20.895ZM1.071 9.505H10.54V11.273H1.071V9.505ZM5.797 11.902C8.126 11.902 9.741 13.092 9.741 14.843C9.741 16.611 8.126 17.801 5.797 17.801C3.502 17.801 1.887 16.611 1.887 14.843C1.887 13.092 3.502 11.902 5.797 11.902ZM5.797 13.602C4.777 13.602 4.046 14.044 4.046 14.843C4.046 15.659 4.777 16.101 5.797 16.101C6.851 16.101 7.582 15.659 7.582 14.843C7.582 14.044 6.851 13.602 5.797 13.602ZM4.675 7.839H6.936V10.525H4.675V7.839ZM20.4157 15.846H22.6767V19.297H20.4157V15.846ZM27.3177 7.771H29.5787V19.688H27.3177V7.771ZM18.2397 21.439H29.9187V23.241H18.2397V21.439ZM18.2397 18.566H20.5007V21.915H18.2397V18.566ZM16.5397 16.526L16.2677 14.724C19.1407 14.724 22.9827 14.69 26.2807 14.265L26.4167 15.88C23.0677 16.441 19.3787 16.526 16.5397 16.526ZM24.3427 16.917H27.8107V18.464H24.3427V16.917ZM21.3337 8.315C23.6287 8.315 25.2437 9.454 25.2437 11.12C25.2437 12.803 23.6287 13.925 21.3337 13.925C19.0217 13.925 17.4067 12.803 17.4067 11.12C17.4067 9.454 19.0217 8.315 21.3337 8.315ZM21.3337 9.964C20.2797 9.964 19.5487 10.355 19.5487 11.12C19.5487 11.885 20.2797 12.276 21.3337 12.276C22.3707 12.276 23.1017 11.885 23.1017 11.12C23.1017 10.355 22.3707 9.964 21.3337 9.964ZM42.0213 7.754H44.2993V23.496H42.0213V7.754ZM43.7043 13.772H46.4753V15.625H43.7043V13.772ZM37.8903 9.386H40.1003C40.1003 14.112 38.2983 18.158 33.0623 20.793L31.8043 19.076C35.9353 16.934 37.8903 14.044 37.8903 9.777V9.386ZM32.6713 9.386H39.0463V11.205H32.6713V9.386ZM58.408 7.771H60.686V16.237H58.408V7.771ZM50.214 16.917H52.441V18.379H58.442V16.917H60.686V23.343H50.214V16.917ZM52.441 20.113V21.541H58.442V20.113H52.441ZM52.118 8.417C54.566 8.417 56.385 9.964 56.385 12.14C56.385 14.316 54.566 15.863 52.118 15.863C49.67 15.863 47.834 14.316 47.834 12.14C47.834 9.964 49.67 8.417 52.118 8.417ZM52.118 10.287C50.911 10.287 50.044 10.984 50.044 12.14C50.044 13.313 50.911 13.993 52.118 13.993C53.308 13.993 54.175 13.313 54.175 12.14C54.175 10.984 53.308 10.287 52.118 10.287Z" fill="#A1C4FD"/>
</svg>
