<svg width="393" height="104" viewBox="0 0 393 104" fill="none" xmlns="http://www.w3.org/2000/svg">
<g filter="url(#filter0_d_990_1066)">
<rect x="21" y="12" width="357" height="60" rx="30" fill="url(#paint0_linear_990_1066)"/>
</g>
<path d="M163.412 32.676H165.81V33.952C165.81 37.802 163.984 41.256 160.09 42.51L158.572 40.244C161.982 39.144 163.412 36.504 163.412 33.952V32.676ZM164.006 32.676H166.382V33.952C166.382 36.35 167.768 38.836 171.068 39.892L169.572 42.158C165.766 40.926 164.006 37.604 164.006 33.952V32.676ZM159.364 31.774H170.364V34.106H159.364V31.774ZM171.992 30.586H174.918V42.862H171.992V30.586ZM174.104 35.514H177.624V37.912H174.104V35.514ZM161.322 43.742H174.918V50.958H171.992V46.096H161.322V43.742ZM183.848 31.642H186.29V33.468C186.29 37.56 184.464 41.146 180.46 42.488L178.942 40.134C182.418 39.012 183.848 36.262 183.848 33.468V31.642ZM184.464 31.642H186.818V33.336C186.818 36.042 188.138 38.55 191.372 39.584L189.854 41.872C186.092 40.574 184.464 37.296 184.464 33.336V31.642ZM193.242 30.586H196.168V42.51H193.242V30.586ZM189.26 43.038C193.572 43.038 196.234 44.512 196.234 46.998C196.234 49.506 193.572 50.958 189.26 50.958C184.948 50.958 182.286 49.506 182.286 46.998C182.286 44.512 184.948 43.038 189.26 43.038ZM189.26 45.304C186.62 45.304 185.212 45.854 185.212 46.998C185.212 48.142 186.62 48.714 189.26 48.714C191.922 48.714 193.33 48.142 193.33 46.998C193.33 45.854 191.922 45.304 189.26 45.304ZM189.524 34.282H193.66V36.658H189.524V34.282ZM203.999 38.836H206.925V41.916H203.999V38.836ZM205.429 31.4C208.377 31.4 210.511 33.094 210.511 35.558C210.511 37.978 208.377 39.672 205.429 39.672C202.481 39.672 200.347 37.978 200.347 35.558C200.347 33.094 202.481 31.4 205.429 31.4ZM205.429 33.6C204.043 33.6 203.075 34.304 203.075 35.558C203.075 36.79 204.043 37.494 205.429 37.494C206.837 37.494 207.783 36.79 207.783 35.558C207.783 34.304 206.837 33.6 205.429 33.6ZM212.601 30.608H215.527V46.14H212.601V30.608ZM214.493 36.988H218.079V39.386H214.493V36.988ZM201.931 48.252H216.209V50.606H201.931V48.252ZM201.931 44.798H204.879V49.264H201.931V44.798ZM199.621 43.5L199.291 41.168C202.745 41.168 207.519 41.146 211.523 40.574L211.721 42.664C207.607 43.434 202.987 43.5 199.621 43.5ZM224.281 42.466H227.141V47.262H224.281V42.466ZM230.727 42.444H233.587V47.262H230.727V42.444ZM219.617 46.338H238.053V48.714H219.617V46.338ZM221.685 31.906H235.985V38.66H224.633V42.114H221.729V36.372H233.081V34.216H221.685V31.906ZM221.729 40.882H236.447V43.236H221.729V40.882Z" fill="white"/>
<defs>
<filter id="filter0_d_990_1066" x="-1" y="0" width="401" height="104" filterUnits="userSpaceOnUse" color-interpolation-filters="sRGB">
<feFlood flood-opacity="0" result="BackgroundImageFix"/>
<feColorMatrix in="SourceAlpha" type="matrix" values="0 0 0 0 0 0 0 0 0 0 0 0 0 0 0 0 0 0 127 0" result="hardAlpha"/>
<feOffset dy="10"/>
<feGaussianBlur stdDeviation="11"/>
<feColorMatrix type="matrix" values="0 0 0 0 0.631373 0 0 0 0 0.768627 0 0 0 0 0.992157 0 0 0 0.4 0"/>
<feBlend mode="normal" in2="BackgroundImageFix" result="effect1_dropShadow_990_1066"/>
<feBlend mode="normal" in="SourceGraphic" in2="effect1_dropShadow_990_1066" result="shape"/>
</filter>
<linearGradient id="paint0_linear_990_1066" x1="199.5" y1="12" x2="199.5" y2="72" gradientUnits="userSpaceOnUse">
<stop stop-color="#C2E9FB"/>
<stop offset="1" stop-color="#A1C4FD" stop-opacity="0.94"/>
</linearGradient>
</defs>
</svg>
